<svg xmlns="http://www.w3.org/2000/svg" viewBox="0 0 247.44 128.33"><g id="Слой_2" data-name="Слой 2"><g id="Слой_1-2" data-name="Слой 1"><path d="M247.44,49.12c-.35-.15-.19-.3,0-.46Z"/><path d="M56.38,104.82a2.54,2.54,0,0,1-.77.89,16.67,16.67,0,0,0-1.65,1.5,1.18,1.18,0,0,1-.49.33c-.65.39-1,1.1-1.85,1.31-.37.09-.45.6-.82.78a8.53,8.53,0,0,0-1.08.82.21.21,0,0,0-.1.06.57.57,0,0,1-.3.29.19.19,0,0,0,0,.1,2.39,2.39,0,0,1-.74.51h0c-.57.34-1.13.71-1.7,1-.14.15-.32.24-.41.44a.81.81,0,0,1-.57.45,2.15,2.15,0,0,0-1.34.92c-.13.22-.35,0-.53.18-.4.29-.83.53-1.27.82s-.52.71-.94.89a3.8,3.8,0,0,1-1.12.42,11.34,11.34,0,0,0-2.25,1.57,1.56,1.56,0,0,1-.75.34c-.23,0-.37.27-.61.3a.15.15,0,0,0-.13,0,.84.84,0,0,1-.51.24c-.91.43-1.72,1-2.63,1.46a16.41,16.41,0,0,1-2.12,1c-.61.19-1,.82-1.6,1-.08,0-.08.22-.22.13-.52-.32-.82,0-1,.38s-1,.33-1.42.46-.72,0-1,.35c-.09.12-.23.08-.34.12-.31.1-.73,0-.92.41a.19.19,0,0,1-.12.07,3.91,3.91,0,0,0-2.37.82c-.17.09-.35.22-.57.11H22c-.82.56-2,.21-2.8.82-.1.07-.27,0-.31.2-.06.36-.21.29-.47.15s-.69.1-1,.24a3.81,3.81,0,0,1-1.24.34c-1,.08-1.9.32-2.85.48a21.75,21.75,0,0,0-2.55.37,4.3,4.3,0,0,1-1.13.12c-.26,0-.57-.11-.75.22-.06.11-.19,0-.28,0a.77.77,0,0,0-.37,0,20.31,20.31,0,0,1-3.12,0c-.45,0-.92-.27-1.37,0-.39-.32-.82-.13-1.23-.06a.81.81,0,0,1-.65-.16,1.49,1.49,0,0,0-.77-.27,1.39,1.39,0,0,1-.95-.77.21.21,0,0,1,0-.28c.07-.09.15-.19.06-.27-.48-.38-.13-.69.14-.92a3.9,3.9,0,0,0,.57-.88c.36-.55.86-1,1.19-1.55a11.57,11.57,0,0,1,2.12-2.3,1.58,1.58,0,0,1,.39-.24c.44-.21.95.09,1.4-.17a1.18,1.18,0,0,1,.59,0,3.1,3.1,0,0,0,2,.21,1.57,1.57,0,0,1,.53,0,19.85,19.85,0,0,0,4.87.13c.61-.05,1.2.18,1.82.13a2.94,2.94,0,0,0,1.46-.28,1.73,1.73,0,0,1,.74-.13,5.79,5.79,0,0,1,2-.11,2.71,2.71,0,0,0,1.56-.22c.77-.32,1.65-.35,2.39-.71a.67.67,0,0,1,.37,0,8,8,0,0,0,2.64-.54c.29-.45.82-.34,1.24-.46a7.46,7.46,0,0,0,1.09-.3l.3-.15a.82.82,0,0,0,.47-.3h0c.25-.09.51.24.76,0s-.06-.3,0-.44c.55-.13,1.16,0,1.65-.35s1-.36,1.29-.78A.25.25,0,0,1,34,116a1.21,1.21,0,0,0,1.13-.31c.64-.43,1.36-.7,2-1.14.45-.31,1-.38,1.51-.68s.61-.64,1-.73A6.7,6.7,0,0,0,41.84,112c.7-.45,1.4-.89,2.09-1.35s1.39-.83,2.08-1.25A10.47,10.47,0,0,0,47.73,108a20.69,20.69,0,0,0,2.2-1.65A6.63,6.63,0,0,0,51.39,105a2.85,2.85,0,0,1,.83-.59c.92-.53,1.5-1.43,2.35-2a4.54,4.54,0,0,0,.69-.82,2.29,2.29,0,0,0,.75-.48c1.65-1.65,3.48-3.16,5.22-4.74a1,1,0,0,0,.48-.42c.32-.34.83-.55.83-1.12,0-.06.11-.16.2-.2a17.71,17.71,0,0,0,2.77-2.1c.2-.15.2-.4.35-.57a1,1,0,0,0,.54-.24A23,23,0,0,0,68.17,90a1.21,1.21,0,0,1,.43-.32,3.3,3.3,0,0,0,1-.83,2.58,2.58,0,0,1,.92-.78c.21-.1.64-.2.37-.66-.09-.15.14-.16.24-.19a2.19,2.19,0,0,0,1.13-.58,2.56,2.56,0,0,0,1.23-.94c.17-.28.53-.39.6-.74.19-.16.51,0,.65-.29.38-.36.89-.53,1.25-.91.26-.09.38-.35.57-.51a18.21,18.21,0,0,1,2.35-1.94.84.84,0,0,1,.37-.35,3.64,3.64,0,0,1,1.12-.63,10.33,10.33,0,0,1,1.51-1.52,16.87,16.87,0,0,1,1.73-1c.15-.25.24-.56.6-.62a13.74,13.74,0,0,0,1.43-1.08c.7-.57,1.21-1.28,1.86-1.87A6.42,6.42,0,0,0,88.6,73a2.65,2.65,0,0,1,1.06-.93,1.2,1.2,0,0,0,.41-.33,9.25,9.25,0,0,1,1.83-1.34c.22-.18.37-.08.48.14s-.31.51,0,.78.59.17.75-.21.3-.21.49-.26.52-.18.67.17a14.68,14.68,0,0,1-1.51,1.44c-1,1-1.94,2.15-3,3.15a1.14,1.14,0,0,1-.57.75c-.35.16-.4.64-.82.82-.1.12,0,.33-.19.43a2.33,2.33,0,0,0-.66.89,3.76,3.76,0,0,1-1.37,1.56c-.24.75-.89,1.27-1.19,2a2,2,0,0,1-.61.92,2,2,0,0,1-.47.75h0c-.08.12-.19.21-.27.33h0c-.16.16-.13.44-.34.57l-.14.18c0,.58-.83.68-.83,1.25-.25.33.1.73-.13,1v0c.24-.23.57-.21.82-.38.32-.47.83-.69,1.21-1.1A5.34,5.34,0,0,1,85,85c.73-.4,1.3-1,2-1.39.25-.39.82-.45,1-.92.11-.17.19-.36.45-.32a1.79,1.79,0,0,0,1-.51A5.88,5.88,0,0,1,91,80.72a1,1,0,0,1,.4-.29,7.59,7.59,0,0,0,1.36-1c.4-.11.83-.21.83-.74h0c.12-.14.16-.33.28-.48.55-.91.83-1.94,1.44-2.83A2.94,2.94,0,0,0,96,74.18a.52.52,0,0,1,.27-.36.73.73,0,0,0,.39-.45c.26-.82.87-1.42,1.15-2.22a.52.52,0,0,1,.11-.19,4.78,4.78,0,0,0,1.22-2,2.41,2.41,0,0,1,.57-.83A3.49,3.49,0,0,0,100.5,67a.48.48,0,0,0-.11-.67l0,0a1.72,1.72,0,0,0-.83-.49,2.94,2.94,0,0,1-2-1.37,1.16,1.16,0,0,0-.28-.26c-.08-.16-.13-.31,0-.45,0,0,.1-.08.09-.09-.13-.32,0-.49.31-.56s.25-.64.64-.72a3.32,3.32,0,0,1,2.67-.18,4.85,4.85,0,0,0,1.74.07,1.38,1.38,0,0,1,.45,0c.51.11.76-.11.89-.58a1.36,1.36,0,0,1,.48-.65,6.44,6.44,0,0,0,1.07-1.26,12.28,12.28,0,0,0,1.46-2.26c0-.1.13-.19.23-.18.42,0,.57-.32.75-.57a13.1,13.1,0,0,1,2.47-2.78c.19-.14.17-.15.08-.82A2.15,2.15,0,0,0,112,52a5.72,5.72,0,0,1,1.55-1.55,2.94,2.94,0,0,0,.72-.77s.11-.08.1-.1c-.17-.75.57-.74.88-1.08.09-.22.14-.42,0-.61h0c0-.29.23-.21.35-.3a.2.2,0,0,1,.15,0c.51,0,.77-.52,1.22-.64a13.87,13.87,0,0,1,2-1.85c.24-.22.18-.71.64-.74a24.19,24.19,0,0,0,2.79-1.81,2.1,2.1,0,0,1,1.46,0,.59.59,0,0,1,.28.71c-.23.78-.2.83-.88,1.25a5.43,5.43,0,0,0-1.39,1.27,6.44,6.44,0,0,1-.71,1.12,30.2,30.2,0,0,0-2.18,2.48.84.84,0,0,1-.28.25,5,5,0,0,0-1.86,1.86,11.57,11.57,0,0,1-2.42,2.47,2.73,2.73,0,0,0-.87,1c-.24.5-.73.82-.82,1.42A3.46,3.46,0,0,0,111.26,58h0a1.15,1.15,0,0,0-1,1c-.09.34-.32.4-.52.56h0a3.48,3.48,0,0,1-.76.82c-.21.18-.53.3-.32.68h0a.77.77,0,0,0,.75,0h0c.51-.41,1.13-.17,1.65-.32a3.61,3.61,0,0,1,1.58-.68,4,4,0,0,0,1.44-.41,2,2,0,0,1,1.31-.28,1.7,1.7,0,0,0,1.16-.28c.47-.3,1.12-.37,1.24-1.08a.23.23,0,0,1,.19-.1c.54,0,.74-.38,1-.73a4.81,4.81,0,0,1,.55-.73c.15-.15.27-.32.14-.54s-.06-.25.18-.31c.43-.1-.08-.35,0-.52a2.49,2.49,0,0,0,1.74-.94c.66-.7,1.28-1.45,1.91-2.18a1.37,1.37,0,0,0,.26-.37c.17-.35.31-.76.82-.82a.37.37,0,0,0,.18-.14c.4-.83,1.27-1.13,1.79-1.83a1.86,1.86,0,0,1,.74-.65c.09,0,.23-.13.22-.2,0-.6.57-.68.88-1s.34-.49.63-.59c.25-.32.43-.7.89-.82a.57.57,0,0,0,.3-.22,5.36,5.36,0,0,1,1.27-1.2,1.08,1.08,0,0,0,.56-.77c0-.42.48-.43.72-.63s.6-.5.24-1a2.72,2.72,0,0,0,2-1c.71-.66,1.12-1.56,1.87-2.17s1.32-1.4,2.08-2a2.08,2.08,0,0,1,.63-.43.28.28,0,0,0,.2-.11c0-.6.71-.75.89-1.24.09-.25.24-.26.44-.29.5-.09,1-.16,1.24-.74.12-.3.53-.36.82-.55s.78-.56,1.18-.82c.24-.19.53,0,.77-.13h.13c.39.24.32.53.16.9a13.23,13.23,0,0,1-2.68,3.9c-.44.5-.83,1.06-1.29,1.51-.88.9-1.24,2.19-2.33,2.89-.12.07,0,.4-.31.32h-.23a5.16,5.16,0,0,1-1.41,1.46,1.29,1.29,0,0,0-.5.51c-.69,1.35-2.07,2.09-2.88,3.3-.07.1-.23.11-.32.21a1.67,1.67,0,0,1-.91,1.14.23.23,0,0,0-.22.19c0,.49-.38.54-.7.67s-.58.37-.62.76h0a1,1,0,0,0-.83,1.05h0a.85.85,0,0,1-.22.48h0a1.65,1.65,0,0,0-1.5,1.26c-.11.42-.44.58-.73.82a.79.79,0,0,1-.24.21c-.15.23-.17.54-.55.63a.62.62,0,0,0-.47.52c0,.28-.36.44-.63.56-.16.62.19.59.61.46,2.1-.74,4.21-1.46,6.3-2.21a26.51,26.51,0,0,0,2.62-1.13,24.82,24.82,0,0,1,2.48-.95c1-.38,2.07-.78,3.1-1.23,1.34-.57,2.69-1.13,4.08-1.6.82-.3,1.64-.7,2.47-1.06a13.27,13.27,0,0,0,2.21-1,1,1,0,0,1,.58-.13.77.77,0,0,0,.55-.24,6.76,6.76,0,0,1,2.47-1.27,19.21,19.21,0,0,0,2.17-1A7.49,7.49,0,0,1,158,43.07a12.26,12.26,0,0,0,3.36-1.35c.34-.2.78-.21,1.06-.53a.28.28,0,0,1,.39,0l0,0c.25.29.11.57-.07.83-.36.47-.63,1-1,1.45s-.82.9-1.52.63c-.21-.07-.33.09-.42.25l-.05.19c0,.18.05.44-.1.51-.64.28-1,1-1.57,1.27-.14.1-.3.18-.44.28a1.4,1.4,0,0,1-.38.16c-.33,0-.76-.13-1,.33a1.22,1.22,0,0,0-.07.17l-.05.18a1,1,0,0,1,0,.18.66.66,0,0,1-.41.3c-.21,0-.37-.12-.56-.14-.44-.05-.74.06-.62.61v.2c0,.08-.09.19-.14.18-1-.08-1.56.76-2.31,1.2h-.22c-.55-.16-.36.25-.37.5a.47.47,0,0,1-.12.3c-.25.09-.43.49-.78.19a2,2,0,0,0-1.36.12c-.24.09-.3.32-.37.53a19.46,19.46,0,0,1-4.17,2A24.9,24.9,0,0,0,140.91,55c-.19.18-.49.13-.69.31h0c-.63.38-1.42.42-2,.9h0c-.37.17-.82,0-1.15.35-.93.32-1.64,1.06-2.72,1.11-.83.18-1.45.69-2.26.83H132a2.13,2.13,0,0,0-.83.4.17.17,0,0,1-.14,0,20.13,20.13,0,0,0-2.92.91,25.61,25.61,0,0,1-3.2,1.08A10.13,10.13,0,0,1,121.17,62c-.57,0-.82.53-1.14.89s-.52.56-.74.82c-1,1.2-1.6,2.58-2.56,3.77h0c-.66,1-1.2,2.06-1.84,3.06a.24.24,0,0,0,0,.12c.13.26,0,.33-.23.43a1.23,1.23,0,0,0-.83,1.28c0,.34-.21.47-.46.61a1.18,1.18,0,0,1-.6.93,8.27,8.27,0,0,1-.93,2.11c-.93,1.65-1.31,3.55-2.15,5.24v.07c-.53.33-.55.93-.7,1.44-.09.27-.12.52-.46.62s-.34.37-.38.62c-.1.68-.61,1.2-.68,1.89-.55.17-.83.82-1.44.88a1.45,1.45,0,0,0-1,.62c-.1.15-.3.19-.38.37-.22.58-.54.49-.9.11l-.12-.16c-.15-.25-.35-.34-.6-.16a.53.53,0,0,1-.61,0h0a.61.61,0,0,1-.14-.5,10.48,10.48,0,0,0,.28-2.43h0c.08-.47.25-.92.37-1.39.3-.75.38-1.56.71-2.29a3,3,0,0,0,.59-1.69c.21-.17.3-.43.5-.6a8.56,8.56,0,0,1,.92-2c.31-.83,1-1.47,1.21-2.31.58-1.22,1.36-2.32,2-3.51.12-.23.36-.39.45-.65a2.55,2.55,0,0,1,.46-.78,12.43,12.43,0,0,0,1.73-2.72c.5-.1.52-.56.66-.9a2.77,2.77,0,0,1,.4-.83.33.33,0,0,0,0-.14v-.06a.16.16,0,0,0-.06-.13c-.13-.08-.25-.2-.41-.11-.82.35-1.77.17-2.57.56a8.18,8.18,0,0,1-2.38.56,1.49,1.49,0,0,0-.94.28c-.13.12-.33.08-.51.07a1,1,0,0,0-.67,0c-.22.14-.16.52-.45.62a.35.35,0,0,0-.31.29,3.76,3.76,0,0,1-1,1.6,13.33,13.33,0,0,0-1,1.34c-.09.23-.16.46-.42.55-.53.73-.76,1.65-1.26,2.37a.63.63,0,0,1-.16.82A7.29,7.29,0,0,0,99.1,75.7c-.35.63-.63,1.31-1,1.92a5.11,5.11,0,0,0-.82,1.75,3.26,3.26,0,0,1-.57,1c-.09.27-.36.45-.31.77a.33.33,0,0,1,0,.14,7.22,7.22,0,0,0-1,2,1.16,1.16,0,0,1-.39.46,1.91,1.91,0,0,1,0,.53,23,23,0,0,1-1.18,2.82,7.09,7.09,0,0,0-.82,2,6.31,6.31,0,0,1-.59,1.45c-.21.39-.23.89-.61,1.19a7.29,7.29,0,0,1-1,2.59c-.11.26-.31.49-.24.82s-.2.57-.34.83c-.29.54-.36,1.22-.92,1.65a.47.47,0,0,0-.15.41.57.57,0,0,1-.54.54,1.31,1.31,0,0,0-.94.24c-.2.12-.58-.34-.69-.82a3.2,3.2,0,0,1,.29-1.7,5.68,5.68,0,0,0,.12-2,7,7,0,0,1,.47-2.75c.44-1.25.94-2.47,1.4-3.74.22-.58.41-1.18.6-1.76a.25.25,0,0,0-.07-.28c-.1-.08-.17,0-.26,0a6.68,6.68,0,0,0-1.79,1.33c-.49.47-1.06.82-1.57,1.28-.23.21-.52.39-.75.61A12.24,12.24,0,0,1,84,90.2c-.2.16-.28.4-.47.59A30.23,30.23,0,0,0,81,93.26c-.22.25-.57.29-.83.57-.78,1-1.6,1.88-2.47,2.76v.06c-.33.44-.44,1-1,1.29,0,.6-.54.58-.83.82a3.81,3.81,0,0,0-.61.77c-.43.27-.49.88-1,1.09v.06c0,.88-.71,1.29-1.23,1.83a4.8,4.8,0,0,0-.83,1.46c-.08.34-.34.6-.45.93s-.47.46-.72.66-.52.51-.12.94a1.28,1.28,0,0,0-1,.41c-.35.39-.78.22-1.18.11a.25.25,0,0,1-.19-.31s0,0,0,0a2.46,2.46,0,0,0,.11-.45,2.76,2.76,0,0,1,.57-1.85,1.77,1.77,0,0,0,.3-1.16c0-.3.21-.23.33-.31a1.12,1.12,0,0,0,.28-.4c.18-.37.35-.75.49-1.13h0c.29-.11.2-.5.45-.63a1.51,1.51,0,0,1,.61-1.51c.22-.2.15-.53.34-.75a13,13,0,0,1,.75-1.55c.12-.14.3-.24.27-.47a.78.78,0,0,1,0-.14,1.23,1.23,0,0,0,.59-.93c0-.33.35-.35.43-.58-.1-.22,0-.35.2-.48a16.5,16.5,0,0,1,1.08-1.87.34.34,0,0,0,.07-.36c-.15-.38,0-.59.39-.61a.2.2,0,0,0,.18-.21h0c-.05-.43.27-.68.51-1a7.8,7.8,0,0,0,1.25-2.14c0-.07,0-.18.07-.21.5-.29.63-.82.93-1.24a7.24,7.24,0,0,1,.87-1.13,1.91,1.91,0,0,0,.16-.91c.1-.22,0-.48.13-.71a8.18,8.18,0,0,1,.74-.82c-.37.33-.59.71-.94,1a4.12,4.12,0,0,1-1.16.55.52.52,0,0,0-.35.28C77.5,86.38,76.09,87.1,75,88.1c-.55.48-1.34.67-1.57,1.51-.1.38-.6.2-.82.44l-.17.13c-.55.42-.77,1.22-1.53,1.4a6.39,6.39,0,0,0-.93.87c-.09.08-.15.26-.23.27-1,.18-1.37,1.12-1.95,1.78q-1.2,1-2.31,2a.72.72,0,0,1-.2.09,1,1,0,0,0-.71.53c-1,1.61-2.66,2.44-4,3.66a15.08,15.08,0,0,0-2,1.81l-.15.15c-.34.2-.75.34-.89.78a.28.28,0,0,1,0,.13C57.22,104.35,56.68,104.46,56.38,104.82Z"/><path d="M173.6,32.73a23.7,23.7,0,0,1,2.64-1.51c.47-.21.88-.61,1.46-.51.83-.28,1.65-.64,2.48-.91a19.48,19.48,0,0,1,2.3-.45c1.09.11,1.85-.66,2.73-1.08.2-.09.41-.25.64-.34s.39-.31.14-.57a1.26,1.26,0,0,0-1.64-.71,6.32,6.32,0,0,1-2.4.3,1.94,1.94,0,0,0-1.16.25c-.45.19-.92.32-1.38.47s-1.17,0-1.69.31h0c-.87.21-1.79.19-2.66.44-.51.15-1,.16-1-.58a2,2,0,0,0-.29-.7,2.29,2.29,0,0,1,.09-1.32c0-1-.12-1.93-.16-2.89a2.77,2.77,0,0,0-1.26-2.11,7.82,7.82,0,0,0-4.19-1.77c-.93-.12-1.84-.31-2.76-.5a6.37,6.37,0,0,0-1-.08,24.74,24.74,0,0,0-3.85,0h-.28a19.42,19.42,0,0,0-2.92-.61,8.22,8.22,0,0,1-2.19-.51c-1.2-.38-2.48-.61-3.6-1.06a4.24,4.24,0,0,1-.5-.18c-1.75-.88-3.59-1.58-5.4-2.33a1.24,1.24,0,0,1-.29-.1,9.47,9.47,0,0,0-3-1.51c-.19-.16-.46-.13-.65-.27s-.24,0-.32-.16-.33-.16-.44-.31l-1.7-.46c-.06-.77.58-.48.93-.61h0c1.06.22,2.14.44,3.21.68a2.28,2.28,0,0,0,1.35.3,4,4,0,0,1,1.28.24,1.32,1.32,0,0,1,.68.28.19.19,0,0,0,.21.06.48.48,0,0,1-.18-.07c-.16-.17-.43-.22-.52-.46a.39.39,0,0,1,.11-.34,6.54,6.54,0,0,1,.75.13A.84.84,0,0,0,148,11a.83.83,0,0,1,.82-.23,12.8,12.8,0,0,0,2.47.14,1.54,1.54,0,0,1,.52.09,1.85,1.85,0,0,0,1.27,0,.88.88,0,0,1,.71-.06,2.9,2.9,0,0,0,1.65.06,1.43,1.43,0,0,1,.82,0,13.4,13.4,0,0,0,3.63.17,1.78,1.78,0,0,0,.51-.16.19.19,0,0,0,.12-.17c.1-.48.1-.48.56-.37a1.86,1.86,0,0,0,1.19,0,1.64,1.64,0,0,1,1,0,12.76,12.76,0,0,0,3.65.17,8.75,8.75,0,0,1,1.44.12,16.6,16.6,0,0,0,2.82,0,1.77,1.77,0,0,1,.46,0c1.18.19,2.38.21,3.56.33a7.51,7.51,0,0,1,3.14,1.34,18.09,18.09,0,0,1,2,1.5A8.73,8.73,0,0,1,182,15.68a1.57,1.57,0,0,0,.61.56,2,2,0,0,1,.34.83,13.14,13.14,0,0,0,.19,2.25l.06.2c0,.36.31.61.44.92a.76.76,0,0,1,.09.18.54.54,0,0,0,.19.28l.17.07a2.36,2.36,0,0,0,.65.08,2.28,2.28,0,0,0,.78-.08h0c.34-.21.75,0,1.09-.15l1.95-.05c.24,0,.5.1.75,0s.5.2.66.37,0,.38-.19.56a3.14,3.14,0,0,1-.93.68c-.29.19-.82.39-.29.89a8.1,8.1,0,0,0,1.55.59c.08.1.19.09.28.11,1,.26,1.17.6.61,1.55a.66.66,0,0,1-.09.19c-.39.32-.43.82-.63,1.25l-.1.17c-.1.14-.31.13-.39.29l-.14.13a1.41,1.41,0,0,0-.49.45.87.87,0,0,1-.26.16,1.32,1.32,0,0,0-.76.29,10.09,10.09,0,0,1-1,.4.93.93,0,0,0-.67.82c-.13.89-.13.89-1,.79a1.58,1.58,0,0,0-.71.2l-.19.09a6.75,6.75,0,0,1-1.24,1c-.69.27-1.31.71-2,1a7,7,0,0,0-1.64.77,10.27,10.27,0,0,1-2.55,1.09,1,1,0,0,0-.45.25,1.73,1.73,0,0,0-.65.69.83.83,0,0,1-.59.5,1.54,1.54,0,0,0-.91.6,5,5,0,0,1-1.8.82,4.85,4.85,0,0,0-2.2,1.46c-.55.37-1.11.05-1.65,0a1,1,0,0,1-.36-1.32,1.12,1.12,0,0,1,.16-.22,26.28,26.28,0,0,0,1.65-2.2A8.06,8.06,0,0,1,173.6,32.73Z"/><path d="M226.3,7l1.83-.46c1.29-.64,2.63-1.16,3.9-1.84.83-.42,1.71-.58,2.47-1a14.66,14.66,0,0,1,2.64-1.56c.24-.1.49-.26.7,0s0,.53-.11.76a.75.75,0,0,1-.27.26,15.5,15.5,0,0,0-3,1.84,15.84,15.84,0,0,0-2,1.29,4.7,4.7,0,0,1-1.82,1,7.68,7.68,0,0,0-2.35,1.36c-1,.69-2.13,1.17-3.18,1.79a22,22,0,0,0-2.36,1.57,14.73,14.73,0,0,0-2.65,1,.91.91,0,0,1-.55.32,12.33,12.33,0,0,0-2.11.83c-1.35.67-2.79,1.15-4.19,1.73a15.27,15.27,0,0,1-2.73,1c-1.15.31-2.31.54-3.48.75a39.07,39.07,0,0,1-4.33.08,3.19,3.19,0,0,0-1.57.35c-.39.34-.22.82-.36,1.28v.33c-.35,1-.94,1.91-1.35,2.9a10.64,10.64,0,0,1-5.36,4.31l-.29.1c-.5.07-1.15.16-1.43-.19s.42-.65.67-1,.69-.59,1-1c.6-.32,1.11-.77,1.65-1.12a9.7,9.7,0,0,0,1.7-1.35,5.35,5.35,0,0,0,.9-1.82,1.43,1.43,0,0,1,.15-.64.45.45,0,0,0,0-.62l0,0c-.06-.22-.44-.22-.34-.6s-.39-.33-.57-.53-.12-.23.09-.39.14-.5.41-.62.5-.09.51-.43a36.73,36.73,0,0,1,4.31-2.77,13.18,13.18,0,0,1,3.47-2.13,4.25,4.25,0,0,1,3.3-.18c.72,0,1.43,0,2.13,0a11.69,11.69,0,0,0,3.8-.67c.3-.12.66,0,.93-.24,1.29-.23,2.35-1,3.61-1.34a27.34,27.34,0,0,0,4.71-1.79C225.19,7.3,225.77,7.19,226.3,7Z"/><path d="M228.13,8.34A6.28,6.28,0,0,1,230.27,7a7.67,7.67,0,0,0,1.65-.75,12.59,12.59,0,0,1,1.13-.78c1-.62,2-1.19,2.89-1.91a3.46,3.46,0,0,1,.95-.5,1.09,1.09,0,0,0,.82-.89,3,3,0,0,0-1.48.55q-.81.53-1.65,1c-.12-.05-.12-.11,0-.17a5.66,5.66,0,0,1,1.84-1.25,2.31,2.31,0,0,0,.64-.38c.45-.28.58-1,1.29-.95a4.91,4.91,0,0,0,.83-.32c.57-.29.67-.21.64.49,0,.07-.07.13-.1.2a6.62,6.62,0,0,1-.4.53.32.32,0,0,1-.27.11h-.14a.29.29,0,0,1,.18.12,6.66,6.66,0,0,1-1.34,1.09A34.67,34.67,0,0,1,233.37,6c-.23.1-.4.32-.66.38-1.25.58-2.47,1.19-3.71,1.87C228.71,8.4,228.49,8.68,228.13,8.34Z"/><path d="M72.29,90.08a.74.74,0,0,1,.42-.19.39.39,0,0,0,.38-.39,1,1,0,0,1,.56-.7c.42-.24.73-.63,1.13-.87a14.7,14.7,0,0,0,2.77-2.39,9.34,9.34,0,0,1,1.58-1.3,1.52,1.52,0,0,1,.51-.16c.22-.14.37-.07.47.15s.32.53,0,.83c-.51-.27-1,0-1.55-.06,0,0-.09.09-.09.12.2.61-.23.83-.6,1.19-.82.76-1.76,1.33-2.54,2.13-.33.35-.82.53-1.2.91-.25.05-.48.12-.49.44a.84.84,0,0,1-.6.48C72.85,89.93,72.46,90.57,72.29,90.08Z"/><path d="M194,24.75c0,.1,0,.24-.09.29q-.78.8-1.47,1.65a1.87,1.87,0,0,0,1.32,0l2.72-1.37a3.08,3.08,0,0,0,1.05-1,17.73,17.73,0,0,0,1.65-2,.13.13,0,0,1,.18-.06h0c.27.38,0,.65-.2.94h0c-.22.33-.55.58-.75.93-.93,1.34-2.41,1.91-3.75,2.66a3.31,3.31,0,0,1-3-.25c.65-.22.95-.82,1.44-1.19A2.8,2.8,0,0,1,194,24.75Z"/><path d="M228.13,8.34A7.6,7.6,0,0,0,230,7.51c.47-.18.89-.49,1.39-.64a1.78,1.78,0,0,0,.64-.4.94.94,0,0,1,.68-.29c.06.36-.34.26-.45.46a3.52,3.52,0,0,1-.45.3,21.21,21.21,0,0,0-3.41,1.85,20.13,20.13,0,0,1-2,1,19.5,19.5,0,0,0-2.58,1.75,3,3,0,0,1-1.88.73.23.23,0,0,1,0-.2c.22-.16.31-.5.65-.48a11.46,11.46,0,0,0,2.48-1.46,24.93,24.93,0,0,1,2.47-1.4A3,3,0,0,0,228.13,8.34Z"/><path d="M159.19,44.51c-.13-.19-.1-.34.12-.42a1.8,1.8,0,0,1,1-.13,1.27,1.27,0,0,0,1.34-.69,6.1,6.1,0,0,1,.78-1.19c.46.52.25,1-.16,1.38-.62.71-1.53,1.11-2,2a2.26,2.26,0,0,0-1.5,1,.23.23,0,0,1-.3.1l0,0h-.29a.16.16,0,0,1-.16-.15c.41-.41.69-.94,1.25-1.21.35-.17.08-.44,0-.65a.43.43,0,0,1,.26-.13A.47.47,0,0,0,159.19,44.51Z"/><path d="M58.5,102.8a1.78,1.78,0,0,1,.56-.82,31.2,31.2,0,0,1,2.68-2.19,13.87,13.87,0,0,1,1.15-.87,2.21,2.21,0,0,0,.73-.82,3.8,3.8,0,0,1,1.48-1.57c.25.32.14.55-.17.73-.09.07-.2.12-.23.2a4.65,4.65,0,0,1-1.85,1.83c-.71.53-1.18,1-1.76,1.5a2.53,2.53,0,0,1-.82.59.94.94,0,0,1-.59.62,1,1,0,0,0-.66.47A.58.58,0,0,1,58.5,102.8Z"/><path d="M162.24,43.46c0-.47.27-.9.16-1.38a1.27,1.27,0,0,0,.17-.63L159,43a2,2,0,0,1-1.05.14,19.77,19.77,0,0,1,2-.82c.53-.25,1-.54,1.54-.83a8.09,8.09,0,0,1,2.48-.89c0,.37-.52.41-.47.61.21.74-.57,1.11-.61,1.75a.56.56,0,0,1-.23.46A.28.28,0,0,1,162.24,43.46Z"/><path d="M232.28,6.66l.45-.46A12.81,12.81,0,0,1,234,5.49,38.92,38.92,0,0,0,237.68,3a2.2,2.2,0,0,1,1.11-.62c.14,0,.2-.14.23-.27s-.06-.13,0-.15l.12-.14c.16-.15.24-.37.44-.49h0a.21.21,0,0,1,.29,0h0a2.37,2.37,0,0,0-.25.47.92.92,0,0,1-.82.79.59.59,0,0,0-.27.14,21.33,21.33,0,0,1-3.4,2.41c-.68.45-1.4.82-2.07,1.26A1.44,1.44,0,0,1,232.28,6.66Z"/><path d="M207.13,17.37c1.42-.35,2.85-.67,4.27-1.05a5.9,5.9,0,0,0,1.87-.78c.53,0,1-.31,1.55-.29a.33.33,0,0,1,.15.16,4.53,4.53,0,0,1-1.18.49,22,22,0,0,1-2.36.83,11.31,11.31,0,0,1-4,.82C207.27,17.62,207.18,17.53,207.13,17.37Z"/><path d="M226.3,7c-.25.4-.73.28-1.08.49A34.56,34.56,0,0,1,221.3,9.1a13.31,13.31,0,0,1-2,.6,3.19,3.19,0,0,0-.78.29,4.42,4.42,0,0,1-2.23.68,22.44,22.44,0,0,1,3.94-1.6,26.92,26.92,0,0,0,4-1.51A7.36,7.36,0,0,1,226.3,7Z"/><path d="M127.94,4.66c-.06-.1-.26-.11-.22-.26a.22.22,0,0,1,.28-.17h0l.82.27c.32.27.72.4,1,.63l.32.31a4.91,4.91,0,0,0,.48.43h0a.86.86,0,0,1,.23.39c.18.19.42.37.18.68a.51.51,0,0,1-.67.14,2.88,2.88,0,0,0-.56-.2A7.34,7.34,0,0,1,127.94,4.66Z"/><path d="M207.13,17.37l.33.18a4.12,4.12,0,0,1-1.81.17c-.94,0-1.89,0-2.82,0-.68-.06-1,.54-1.56.69,0,0,0,.1,0,.15.07.42-.18.78-.23,1.18s-.26,1-.47,1.5l-.28.34a.17.17,0,0,1-.23,0c-.21-.29,0-.55.1-.77a4.83,4.83,0,0,0,.42-1.21v-.3c.16-.45,0-.95.32-1.37a1.69,1.69,0,0,1,1.45-.44A17.79,17.79,0,0,0,207.13,17.37Z"/><path d="M133.43,47.29a10.31,10.31,0,0,1,2.13-2.43,3.45,3.45,0,0,0,.72-1,2.11,2.11,0,0,1,.92-.9,1.59,1.59,0,0,0,.66-.6,1.58,1.58,0,0,1,.68-.6c0,.15.08.31,0,.43a19.34,19.34,0,0,0-2.39,2.65,11.9,11.9,0,0,1-1.23,1.23,3.93,3.93,0,0,0-.91,1C133.87,47.3,133.64,47.3,133.43,47.29Z"/><path d="M209.47,11.53a5,5,0,0,1-1.64,0A2.84,2.84,0,0,0,206,12a14,14,0,0,1-1.46.82,2.46,2.46,0,0,0-1,.7,1,1,0,0,1-.82.47.2.2,0,0,1,0-.21,1.63,1.63,0,0,1,1-1c.46-.19.89-.44,1.34-.66a5.85,5.85,0,0,1,3.43-1.11A1.21,1.21,0,0,1,209.47,11.53Z"/><path d="M188.93,27.93l.15-.14c.19-.17.33-.41.62-.45h0c.09-.2.32-.18.45-.33l0-.11c.2-.46.41-.92.59-1.39h0c.32-.37.45-.82.76-1.23a1.21,1.21,0,0,1,.38,0c.39.1.42.18.18.5a1.71,1.71,0,0,1-.54.53,1,1,0,0,0-.43.61A3.87,3.87,0,0,1,190,27.56,7,7,0,0,1,187.11,29c-.13-.14-.06-.28,0-.41.37,0,.66-.29,1-.34C188.28,27.93,188.68,28.16,188.93,27.93Z"/><path d="M144.61,53.72a5.57,5.57,0,0,1,2.19-.95H147c.37-.57,1.08-.6,1.55-1,.06,0,.08-.13.11-.2,0-.43.4-.5.63-.72A3,3,0,0,1,150,51c.21.1.44.17.44.47a.94.94,0,0,1-1,.14c-.17.26-.49.28-.73.44l-1,.74a.81.81,0,0,1-.4.18c-.72-.07-1.22.4-1.77.7a1.51,1.51,0,0,1-.93.21C144.51,53.8,144.51,53.76,144.61,53.72Z"/><path d="M109.68,81.47a6.7,6.7,0,0,1,.64-1.94,7.62,7.62,0,0,0,.44-1.21A12.26,12.26,0,0,1,112,75.61a8.36,8.36,0,0,1,.76-1.49,4.11,4.11,0,0,1-.67,2,12.83,12.83,0,0,0-1,2.13,21,21,0,0,1-1.12,3A.58.58,0,0,1,109.68,81.47Z"/><path d="M129.93,6.64a2.37,2.37,0,0,1,.36.09c.21.07.41.26.61,0s-.06-.37-.08-.56a.11.11,0,0,1,.14,0v0c.35.35.91.36,1.22.77,0,.41.27.42.52.56s.87-.07.83.56c-.18,0-.37.11-.51,0-.72-.3-1.53-.24-2.24-.59C130.35,7.42,129.75,7.41,129.93,6.64Z"/><path d="M138.77,41.8c.42-.78,1.1-1.39,1.56-2.14a24.56,24.56,0,0,1,1.93-2.48,1.32,1.32,0,0,1,.32-.2c.15-.08.19,0,.18.15-1,1.16-1.86,2.47-2.75,3.69a1.09,1.09,0,0,0-.48.6.55.55,0,0,0-.4.31C139.05,42,138.91,41.91,138.77,41.8Z"/><path d="M222,12.17v.13a1.47,1.47,0,0,1-.7.44,4.15,4.15,0,0,0-1.51.65,13.15,13.15,0,0,1-2,.82c-.74.31-1.43.74-2.2,1a.3.3,0,0,1-.12-.28,12.45,12.45,0,0,1,2.89-1.4c.42-.12.68-.68,1.21-.47l.46-.3a12.63,12.63,0,0,0,1.77-.77C221.9,12,222,12.07,222,12.17Z"/><path d="M128.37,6.66a4.06,4.06,0,0,1-2-1.91c.33-.15.6-.24.83,0a1.68,1.68,0,0,0,.52.3c.77.07,1,.82,1.4,1.26a.27.27,0,0,1,0,.38l0,0C128.84,7,128.63,6.71,128.37,6.66Z"/><path d="M128.37,6.66c.19-.17.38,0,.67,0a5.89,5.89,0,0,0-1.27-1.58c.24-.08.1-.29.14-.43a6.55,6.55,0,0,1,1.2,1.21c.27.26.55.51.83.76a2.36,2.36,0,0,0,.89.91,1,1,0,0,0-.33.15c-.3.29-.53.15-.76-.08,0-.3-.23-.33-.46-.33A1.1,1.1,0,0,1,128.37,6.66Z"/><path d="M234.55,3.55v.17c-1.16.67-2.47,1.06-3.65,1.65-.66.31-1.33.61-2,.94a1.43,1.43,0,0,1-.83.21c.26-.44.74-.53,1.13-.74A10.31,10.31,0,0,0,231,4.87a6.52,6.52,0,0,1,1.15-.49,6.44,6.44,0,0,0,1.88-.82C234.2,3.49,234.41,3.55,234.55,3.55Z"/><path d="M124.86,61.1a.22.22,0,0,1,.12-.3.18.18,0,0,1,.1,0c1-.06,1.85-.7,2.84-.83a1.14,1.14,0,0,0,.38-.23,6,6,0,0,1,2.48-.7.59.59,0,0,1,.2.09,4.16,4.16,0,0,1-1.65.66c-1.06.27-2,.74-3.07,1.06A3.75,3.75,0,0,1,124.86,61.1Z"/><path d="M155.64,47.86c.14-.07.14-.17,0-.28s.05-.21.12-.3h.18c.77,0,1.07.34.89,1l-1.17.51a4.74,4.74,0,0,1-1.12.23c-.19-.07-.19-.28-.27-.43s0-.07,0-.1C154.48,47.58,154.48,47.58,155.64,47.86Z"/><path d="M142.78,37.14l-.19-.15a2.84,2.84,0,0,1,.77-1,3.7,3.7,0,0,0,1-1.31c.29-.59.66-1.14.89-1.75a.61.61,0,0,0,0-.64c.25,0,.52-.12.45.34a2.4,2.4,0,0,1-.23.82c-.31.6-.62,1.21-.91,1.82-.19.41-.6.6-.82,1A7.74,7.74,0,0,1,142.78,37.14Z"/><path d="M89.76,75.66a.83.83,0,0,1,.29-.52c1-1.13,2-2.29,3.17-3.34a4.54,4.54,0,0,1,.94-.63c.1,0,.11.11,0,.19A36.69,36.69,0,0,0,90.57,75,2.87,2.87,0,0,1,89.76,75.66Z"/><path d="M156.86,48.33c-.09-.52-.51-.76-.89-1h0a1,1,0,0,1,.54-.36c.36-.06.83.12,1-.39.13-.17.31-.13.47-.14l.16.14c-.16.44.26.55.55.83A7.52,7.52,0,0,0,156.86,48.33Z"/><path d="M67.52,94.49,68,93.9c.11-.14.17-.34.31-.43.91-.5,1.47-1.45,2.48-1.88a.32.32,0,0,1,0,.37.28.28,0,0,1-.19.27c-.39,0-.28.42-.45.6a.91.91,0,0,1-.44.3c-.75.13-1.1.72-1.5,1.27a1.2,1.2,0,0,1-.67.58A.42.42,0,0,1,67.52,94.49Z"/><path d="M146.14,11.88a15,15,0,0,1-2.19-.47.89.89,0,0,1-.42-.3c-.11,0-.11-.09,0-.14l.42.13c.5.18.31-.12.23-.34s.13-.23.2-.19c.68.35,1.56.15,2.11.82a1,1,0,0,1,.58.19C147,12.24,146.49,11.89,146.14,11.88Z"/><path d="M176.63,34.7a.93.93,0,0,1,.55-.25,1.41,1.41,0,0,0,1.06-.52.41.41,0,0,1,.25-.15,3.47,3.47,0,0,0,1.6-.83,2.4,2.4,0,0,1,1.31-.37.16.16,0,0,1,0,.23l0,0a2.62,2.62,0,0,0-1.35.83c-.07.1-.22.11-.34.15a4.08,4.08,0,0,0-1.42.61c-.31.27-.83.15-1.16.31C177,34.81,176.79,34.86,176.63,34.7Z"/><path d="M176.63,34.7h.5c-.27.39-.78.6-.79,1.17,0,.16-.2.23-.33.28-.72.32-1.42.68-2.11,1.07a1.77,1.77,0,0,1-1.08.23q-.15-.09,0-.18a5.48,5.48,0,0,0,1.69-.89,2.23,2.23,0,0,1,1.13-.58c.31,0,.25-.35.39-.51A2.58,2.58,0,0,1,176.63,34.7Z"/><path d="M144.61,53.72v.13a16.68,16.68,0,0,1-3.48,1.27.3.3,0,0,1-.38,0,1.9,1.9,0,0,1,1.54-.77,1.3,1.3,0,0,0,.72-.22A2.74,2.74,0,0,1,144.61,53.72Z"/><path d="M154.54,49c.38,0,.75-.24,1.14-.11-.65.21-1.18.69-1.85.9a6.52,6.52,0,0,0-1.29.78,2.93,2.93,0,0,1-.4.19.44.44,0,0,1-.16-.17.47.47,0,0,1,.18-.49,7,7,0,0,0,.83-.7A1.38,1.38,0,0,1,154.54,49Z"/><path d="M188.58,23.22c-.58-.36-.57-.36-.17-.78A1.9,1.9,0,0,1,189,22a.8.8,0,0,0,.44-.28c.15-.21.47-.38.34-.69s-.4-.23-.65-.21a.84.84,0,0,1-.51-.14,1.24,1.24,0,0,1,1.45.19.61.61,0,0,1,.07.87.69.69,0,0,1-.13.11,4.91,4.91,0,0,1-1.14.73C188.51,22.78,188.51,23,188.58,23.22Z"/><path d="M116.73,67.68a2.82,2.82,0,0,1,.51-.93,1.59,1.59,0,0,0,.38-.82c0-.07,0-.18.06-.21.69-.48.82-1.42,1.5-1.88a.31.31,0,0,1,0,.44c-.17.34-.34.68-.52,1a1,1,0,0,1-.49.54.39.39,0,0,0-.31.38C117.85,67,117.28,67.33,116.73,67.68Z"/><path d="M174.09,27.19c.17,0,.32,0,.36.17a.89.89,0,0,1,0,.23c0,.82,0,.88.76.6a2.73,2.73,0,0,1,.89-.15,3.46,3.46,0,0,0,1.06-.17.51.51,0,0,1,.63.11.58.58,0,0,1-.37.24,14.11,14.11,0,0,1-3.3.33c-.17-.17,0-.42-.18-.6h0C173.86,27.68,173.78,27.4,174.09,27.19Z"/><path d="M170.63,35.15a15,15,0,0,1-1.46,1.93,1.3,1.3,0,0,0-.19,1.77c-.61-.05-.59-.05-.61-.55a2.1,2.1,0,0,1,.46-1.27,15.74,15.74,0,0,0,1.37-1.87A.33.33,0,0,1,170.63,35.15Z"/><path d="M160.69,18.47c.1-.15.18-.33.41-.28a11.65,11.65,0,0,0,2.21,0,2,2,0,0,1,1.23.32,2.41,2.41,0,0,1-.66.12,18.52,18.52,0,0,0-2.47,0A.83.83,0,0,1,160.69,18.47Z"/><path d="M202.69,13.84a.38.38,0,0,1,0,.15,7.36,7.36,0,0,1-1.37.83,4.11,4.11,0,0,0-1.1.7,6.18,6.18,0,0,1-1.82,1.11c0-.28.22-.41.41-.51,1.06-.59,1.95-1.43,3-2,.23-.12.46-.2.69-.3A.12.12,0,0,1,202.69,13.84Z"/><path d="M186,27.36c.43.29.46.4.1.58-.83.4-1.55,1-2.39,1.31a1.37,1.37,0,0,1-1.23.1c.22-.21.52-.18.82-.26s.65-.11.83-.46c0-.13.18-.16.31-.17.54-.05.87-.55,1.4-.65C186,27.77,186,27.53,186,27.36Z"/><path d="M187.08,28.6a.49.49,0,0,1,0,.41,1.88,1.88,0,0,0-.42,1.27c0,.36-.1.47-.43.37a2,2,0,0,0-1.59.28.25.25,0,0,1,0-.35h.13c.23-.2.56-.14.83-.29a2.12,2.12,0,0,0,.44.06c.19,0,.36-.11.3-.33C186.05,29.29,186.58,28.93,187.08,28.6Z"/><path d="M239.93,1.27h-.3a1,1,0,0,0-.11-.56c-.42.17-.83.51-1.3.37.13-.38.55-.36.83-.56l.27-.19c.16-.08.29-.23.49-.25.23.17.72,0,.76.35S240.24,1.08,239.93,1.27Z"/><path d="M170.63,35.15h-.43a5.91,5.91,0,0,1,3.4-2.43c-.53.47-1.21.73-1.72,1.22Z"/><path d="M67.52,94.49V95a8.31,8.31,0,0,1-1.65,1.54c-.21,0-.43.22-.63,0,.6-.48,1-1.21,1.75-1.49A1.45,1.45,0,0,0,67.52,94.49Z"/><path d="M50.67,109.56a8.79,8.79,0,0,1,2.77-2,.28.28,0,0,1-.14.37h0a2.75,2.75,0,0,0-.91.82c-.1.12-.22.29-.33.29-.6,0-.83.55-1.23.83C50.56,109.83,50.59,109.71,50.67,109.56Z"/><path d="M146.49,11.37a3.23,3.23,0,0,0-1.15-.27.9.9,0,0,1-.61-.24.47.47,0,0,0-.55-.1l-.76-.55a2.78,2.78,0,0,1,1.56.34,3.35,3.35,0,0,1,1.47.5Z"/><path d="M133.57,8.08c-.22-.36-.63-.26-.95-.37-.48-.16-.51-.2-.43-.74.18.3.51.3.82.39a14.72,14.72,0,0,1,2,1.14c0,.27-.15.22-.3.18A2.14,2.14,0,0,1,133.57,8.08Z"/><path d="M134.33,57.68c.15-.09.35,0,.5-.09a11.3,11.3,0,0,1,2.13-1.1c.32-.11.19.21.29.3-.63.47-1.44.57-2.09,1-.19.14-.54,0-.82.06C134.25,57.81,134.25,57.75,134.33,57.68Z"/><path d="M134.64,8.68l.31-.17a1.25,1.25,0,0,1,.82.35,4.12,4.12,0,0,0,2.12.83c.17.11.32.23.16.45A13.2,13.2,0,0,1,134.64,8.68Z"/><path d="M114.89,70.75a1.16,1.16,0,0,1,0-.44,28.23,28.23,0,0,1,1.64-2.58h.15A7.36,7.36,0,0,1,114.89,70.75Z"/><path d="M182.79,16.93c-.12-.24-.29-.47-.17-.75a1.85,1.85,0,0,1,.83,1.71,12,12,0,0,0,0,1.8c-.18.12-.23-.05-.32-.14h0a4.41,4.41,0,0,1-.14-1.73A1.6,1.6,0,0,0,182.79,16.93Z"/><path d="M140.3,10.33c-.16.13-.3.32-.55.32a.4.4,0,0,0-.38.29c-.22-.12-.71-.15-.16-.53.21-.15,0-.23-.11-.31s-.19-.27,0-.34a1.94,1.94,0,0,1,.83,0c.3,0,.26.19.14.39C140.11,10.16,140.25,10.27,140.3,10.33Z"/><path d="M127.47,53.59a1.87,1.87,0,0,0,.83-1.08,1.29,1.29,0,0,1,1.56-.94,2.45,2.45,0,0,0-1.42,1.56c-.09.32-.34.34-.56.45A.34.34,0,0,1,127.47,53.59Z"/><path d="M91.15,80.75c-.64.53-1.29,1-1.92,1.58a.72.72,0,0,1-.72.06A11.56,11.56,0,0,0,90,81.13a1.58,1.58,0,0,1,1-.42C91.06,80.64,91.11,80.65,91.15,80.75Z"/><path d="M181.4,32.86v-.28c.62-.42,1.09-1.14,2-1.13l.06.08c0,.31-.43.29-.51.55A2.49,2.49,0,0,1,181.4,32.86Z"/><path d="M78.57,85c.16-.11.33-.22.51-.32.5-.28.75-.19,1,.38a2.54,2.54,0,0,1-.48.74c0-.27,0-.51-.4-.51A1.2,1.2,0,0,1,78.57,85Z"/><path d="M100.48,73.05V73a4.83,4.83,0,0,1,1.24-2.39q.14.07,0,.18c-.09.06.09.27,0,.43A6.39,6.39,0,0,1,100.48,73.05Z"/><path d="M106.76,74.62a1.17,1.17,0,0,1-.21,1,11.62,11.62,0,0,1-1,1.31,6.15,6.15,0,0,1,1-2.23C106.58,74.62,106.69,74.62,106.76,74.62Z"/><path d="M102.46,84.84a2.46,2.46,0,0,1,0,1.65,5.08,5.08,0,0,0-.18,1.29.41.41,0,0,1-.28-.48,5.41,5.41,0,0,0,.19-2A.45.45,0,0,1,102.46,84.84Z"/><path d="M143.53,11v.19a15.93,15.93,0,0,0-2.28-.37,1.46,1.46,0,0,1-.95-.46,1.49,1.49,0,0,1,1.39.15c.27.21.64.12.95.22Z"/><path d="M134.33,57.68v.18c-.51.27-1,.57-1.53.83-.22.09-.52.27-.77,0A4.65,4.65,0,0,1,134.33,57.68Z"/><path d="M113.35,73.2c.12-.25.33-.45.32-.76a1.18,1.18,0,0,1,.83-1.17.78.78,0,0,0,.44-.4c.23.1.38.28.08.4A1.57,1.57,0,0,0,114,72.74C113.93,73.1,113.66,73.19,113.35,73.2Z"/><path d="M90.85,94.5c.14-.82.62-1.48.73-2.29,0-.11.15-.2.22-.29a1.06,1.06,0,0,1,0,1,3.27,3.27,0,0,0-.45,1.17A.47.47,0,0,1,90.85,94.5Z"/><path d="M72.29,90.08c.24.1.55-.08.76.15a4.81,4.81,0,0,1-1.51,1.4c-.15-.71.33-1.12.75-1.55Z"/><path d="M172.81,37.3v.17l-.17.15c-.19.12-.43.14-.6.3a5.83,5.83,0,0,1-1.39.93.69.69,0,0,1,.28-.61A3.86,3.86,0,0,1,172.81,37.3Z"/><path d="M87.16,83.8a2.16,2.16,0,0,0-1,.65A2,2,0,0,1,85,85a8.55,8.55,0,0,1,2-1.58.26.26,0,0,1,.2.3S87.17,83.78,87.16,83.8Z"/><path d="M119.17,64.29v-.45a9.58,9.58,0,0,1,1.19-1.36,1,1,0,0,1,.82-.32,10.57,10.57,0,0,0-1.48,1.58A5.49,5.49,0,0,0,119.17,64.29Z"/><path d="M72.29,90.08a7.64,7.64,0,0,0-.75,1.55,1.08,1.08,0,0,1-.75.33v-.37a1.75,1.75,0,0,0,.77-.82A1.4,1.4,0,0,1,72.29,90.08Z"/><path d="M95,84a17.5,17.5,0,0,0,.72-1.73,1.2,1.2,0,0,1,.67-.76c.08.12.12.25,0,.35a4.48,4.48,0,0,0-.78,1.44A1,1,0,0,1,95,84Z"/><path d="M158.43,46.53a2.05,2.05,0,0,1,1.83-1.11c-.14.24-.43.26-.63.41a1.31,1.31,0,0,0-.54.62C158.91,46.87,158.86,46.87,158.43,46.53Z"/><path d="M183.54,20.61v-.16c.05-.13.19-.08.27-.15a3,3,0,0,0,1.72.62l-.78.31a1.32,1.32,0,0,1-.92,0h0A1.15,1.15,0,0,1,183.54,20.61Z"/><path d="M198.41,20.45a2.26,2.26,0,0,1-1.08,1.84,5.83,5.83,0,0,1,.59-1.55C198.09,20.66,198.12,20.33,198.41,20.45Z"/><path d="M191.51,24.28a1.5,1.5,0,0,1-.76,1.23.81.81,0,0,1,0-.22c.34-.82.34-.82-.48-1.32a1.21,1.21,0,0,1-.16-.16A1.66,1.66,0,0,1,191.51,24.28Z"/><path d="M202.69,13.84h-.17c.21-.82,1-1,1.65-1.4a1.49,1.49,0,0,1,.82-.25,2.3,2.3,0,0,1-.72.51A2.85,2.85,0,0,0,202.69,13.84Z"/><path d="M138.18,56.33c0-.29.31-.37.52-.5a2.8,2.8,0,0,1,1.49-.4A3.46,3.46,0,0,1,138.18,56.33Z"/><path d="M111.2,58a1.69,1.69,0,0,1,1.37-1.65v.08C112.17,57,111.65,57.47,111.2,58Z"/><path d="M108.61,61.08a.44.44,0,0,1-.06-.61l.06-.06a3.32,3.32,0,0,1,1.07-.83c0,.24.1.46-.22.62A2.18,2.18,0,0,0,108.61,61.08Z"/><path d="M180.17,29.8v.06a9.31,9.31,0,0,1-2.28.89.38.38,0,0,1-.15,0,1.63,1.63,0,0,1,.83-.48A8.15,8.15,0,0,1,180.17,29.8Z"/><path d="M177.73,28c0-.18.11-.37.31-.37a8,8,0,0,0,1.11-.18c.16,0,.19.14.27.24A2.28,2.28,0,0,1,177.73,28Z"/><path d="M47.75,108v.36c-.56.21-.82.79-1.4,1a1.6,1.6,0,0,1-.31,0A5.13,5.13,0,0,1,47.75,108Z"/><path d="M239.05.54c-.16.37-.59.32-.83.56s-.56,0-.52.48c0,.31-.43.24-.67.34A2.49,2.49,0,0,1,239.05.54Z"/><path d="M129.89,51.54c-.1-.23,0-.45,0-.67.06-.62.38-.82,1.06-.82-.33.31-.78.54-.66,1.14C130.35,51.38,130.08,51.48,129.89,51.54Z"/><path d="M85,82.09a1,1,0,0,1,.12-.58c.34-.47.71-.94,1.07-1.42A3.28,3.28,0,0,1,85,82.09Z"/><path d="M157.49,17.85a2.06,2.06,0,0,1,1.1.06,5.72,5.72,0,0,0,1.48.24c.19,0,.34.06.33.3a1.39,1.39,0,0,1-.67-.05Z"/><path d="M112.43,65.21c-.17.53-.33,1.07-.5,1.58-.12.33-.31.38-.56.13a3,3,0,0,0,.66-1.38.32.32,0,0,1,.3-.34Z"/><path d="M103.54,81.16a1.11,1.11,0,0,1-.12.87c-.28.44-.21,1-.48,1.45a.18.18,0,0,1-.16-.16,8.27,8.27,0,0,0,.33-1.39A1.48,1.48,0,0,1,103.54,81.16Z"/><path d="M184.61,30.57v.36a1.25,1.25,0,0,1-.78.71c-.18.14-.32.1-.43-.09v-.09A8.2,8.2,0,0,1,184.61,30.57Z"/><path d="M174.09,27.19A2.18,2.18,0,0,1,174,28a1.79,1.79,0,0,1,0-2.13C174,26.27,173.71,26.77,174.09,27.19Z"/><path d="M87.16,83.8,87,83.44c.25-.42.69-.53,1.09-.73a.4.4,0,0,1-.23.61A2.47,2.47,0,0,0,87.16,83.8Z"/><path d="M81.94,87.15a2.73,2.73,0,0,1,.32-1.05c0-.07.09-.07.14,0,0,.52,0,.52.65.61-.14.3-.43.41-.68.57S82.05,87.29,81.94,87.15Z"/><path d="M200.1,21.52h.16a3.7,3.7,0,0,1-1.1,1.65l.18-.9C199.64,22.07,199.58,21.53,200.1,21.52Z"/><path d="M46.83,112.44a2.69,2.69,0,0,1,1.7-1.06A2.8,2.8,0,0,1,46.83,112.44Z"/><path d="M103.65,88.1c.37.08.74.22.9-.31,0-.14.22-.18.38-.18-.24.55-.54,1-1.24.89C103.31,88.44,103.5,88.26,103.65,88.1Z"/><path d="M109.69,59.58c.35-.38.43-.89.75-1.28s.42-.41.77-.28a1.73,1.73,0,0,0-.9,1.13.51.51,0,0,1-.6.43Z"/><path d="M102.32,87.8a1,1,0,0,0,.57-.3c.25-.21.48,0,.68.1s0,.26,0,.38C103.13,87.89,102.67,88.2,102.32,87.8Z"/><path d="M198.41,20.45l-.49.29c0-.55.49-1,.36-1.57.2-.13.35-.11.32.17S198.47,20.08,198.41,20.45Z"/><path d="M111.05,60.75a3.93,3.93,0,0,1-1.65.33.72.72,0,0,1,.87-.43C110.51,60.7,110.8,60.61,111.05,60.75Z"/><path d="M6.09,120.4c-.13.31-.39.34-.68.3l-.72-.13A1.43,1.43,0,0,1,6.09,120.4Z"/><path d="M82.4,86.1h-.14a.83.83,0,0,1,.34-.73,6.89,6.89,0,0,0,.56-.52c0,.35,0,.69-.43.83A2.12,2.12,0,0,0,82.4,86.1Z"/><path d="M150.46,51.43l-.48-.32a.56.56,0,0,1,.6-.13c.3.22.35-.29.6-.19a.24.24,0,0,1,.32,0,.33.33,0,0,1,.07.16A2.45,2.45,0,0,1,150.46,51.43Z"/><path d="M57.47,103.73c0-.52.18-.73.88-.78C58.22,103.39,57.77,103.46,57.47,103.73Z"/><path d="M112,64.77c.14-.22.41-.17.59-.32s.45-.16.54.12-.26.22-.37.35-.25,0-.3.16h0C112.2,65.11,112.13,64.87,112,64.77Z"/><path d="M56.38,104.82a1.87,1.87,0,0,1,1-.95A1.11,1.11,0,0,1,56.38,104.82Z"/><path d="M200.53,21.19a2,2,0,0,1,.48-1.5A1.92,1.92,0,0,1,200.53,21.19Z"/><path d="M87.29,96.49a7.66,7.66,0,0,1-.29,1.7A1.46,1.46,0,0,1,87.29,96.49Z"/><path d="M32.58,116.87a1.5,1.5,0,0,1-1.65.36s0-.06,0-.06A11.12,11.12,0,0,1,32.58,116.87Z"/><path d="M65.22,96.49a.66.66,0,0,1,.64,0,1.26,1.26,0,0,1-.93.73,2,2,0,0,0,.17-.73Z"/><path d="M41.77,116.11c.1-.2.21-.4.33-.59a.5.5,0,0,1,.61-.3A1.25,1.25,0,0,1,41.77,116.11Z"/><path d="M50.67,109.56l.14.26a2.08,2.08,0,0,1-1.09.61A1.57,1.57,0,0,1,50.67,109.56Z"/><path d="M129.27,7.29c.06-.49.38-.12.57-.15a.25.25,0,0,1,.26.22.17.17,0,0,1,0,.07c0,.19-.23.14-.36.18A.73.73,0,0,1,129.27,7.29Z"/><path d="M73.66,95.58a.16.16,0,0,1,.16.22c-.14.33-.28.7-.75.71C73.1,96.09,73.45,95.88,73.66,95.58Z"/><path d="M94.2,71.36v-.19c-.11-.25-.35-.26-.57-.27.15-.32.46-.3.74-.35.42.13.31.37.15.62Z"/><path d="M80.4,80.39a2.42,2.42,0,0,1-1.08.82.23.23,0,0,1,0-.31A1.45,1.45,0,0,1,80.4,80.39Z"/><path d="M73.49,85.74c-.25.51-.56,1-1.23.93A7.94,7.94,0,0,1,73.49,85.74Z"/><path d="M129.89,5.13a1,1,0,0,1-1.06-.63A1.32,1.32,0,0,1,129.89,5.13Z"/><path d="M119.49,44.39c-.19.26-.26.64-.64.74a3.05,3.05,0,0,1,.06-.6C119,44.12,119.23,44.12,119.49,44.39Z"/><path d="M116.87,47a2.79,2.79,0,0,1-.92.75c-.13.06-.25.07-.3-.1C116.05,47.37,116.35,47,116.87,47Z"/><path d="M137.25,56.79c-.18,0-.22-.18-.29-.3a1.32,1.32,0,0,1,1.22-.16Z"/><path d="M102.78,83.32l.16.16a6.46,6.46,0,0,1-.48,1.36A3.49,3.49,0,0,1,102.78,83.32Z"/><path d="M70.6,101.56a1.57,1.57,0,0,1-.47,1.23.09.09,0,0,1-.14,0l0,0A3.2,3.2,0,0,1,70.6,101.56Z"/><path d="M183.42,31.55l.42.09a2.28,2.28,0,0,1-.92.46C182.8,31.66,183.16,31.68,183.42,31.55Z"/><path d="M59.71,102c.08-.31.35-.45.59-.61C60.24,102,60.18,102,59.71,102Z"/><path d="M148.75,52a.75.75,0,0,1,.73-.45c.13.17.14.32-.09.39A1.18,1.18,0,0,1,148.75,52Z"/><path d="M92.35,71.37c-.47-.27-.47-.36,0-.78C92.71,70.87,92.31,71.11,92.35,71.37Z"/><path d="M29.37,118.12c-.31.28-.64.51-1.09.29A1.15,1.15,0,0,1,29.37,118.12Z"/><path d="M126.38,56a1.74,1.74,0,0,1-.33.18.36.36,0,0,1-.45-.14c-.13-.23,0-.38.17-.49A.57.57,0,0,0,126.38,56Z"/><path d="M74.74,84.7c-.15.46-.15.46-.65.3-.09-.21,0-.28.2-.3Z"/><path d="M94.48,71.17a.74.74,0,0,0-.15-.62c.14-.16.28-.32.5-.1s.06.28,0,.4Z"/><path d="M93.6,78.74a.46.46,0,0,1-.18.62l0,0c-.18.12-.33.38-.57.1C93.09,79.25,93.46,79.11,93.6,78.74Z"/><path d="M109.64,69.67c0,.32-.1.64-.46.78C109.07,69.87,109.08,69.86,109.64,69.67Z"/><path d="M73.65,89.76c-.13-.1-.22-.23-.1-.38a.51.51,0,0,1,.59-.06A1.59,1.59,0,0,1,73.65,89.76Z"/><path d="M84.26,77.19c-.19.21-.26.54-.6.62C83.67,77.16,83.68,77.15,84.26,77.19Z"/><path d="M198.43,24.14c.06-.46.41-.69.75-.92A1.39,1.39,0,0,1,198.43,24.14Z"/><path d="M98.34,62.34a1.43,1.43,0,0,1-.65.72C97.79,62.42,97.79,62.42,98.34,62.34Z"/><path d="M183.83,20.3l-.27.15a2.8,2.8,0,0,1-.48-.92l.31.15Z"/><path d="M131.12,59.07c.18-.29.36-.61.83-.4C131.77,59,131.44,59,131.12,59.07Z"/><path d="M70.15,92.83a3.23,3.23,0,0,1,0-.44c0-.38.22-.38.48-.16A1.56,1.56,0,0,1,70.15,92.83Z"/><path d="M48.53,111.38c.14-.34.44-.42.74-.51C49.14,111.21,49,111.46,48.53,111.38Z"/><path d="M74.29,94.52l-.2.48c-.17,0-.36-.13-.31-.32S74.12,94.58,74.29,94.52Z"/><path d="M96.35,81.32c-.19-.37.05-.56.31-.76C96.8,80.91,96.48,81.09,96.35,81.32Z"/><path d="M76.56,83.29c-.13.24-.09.66-.57.51A.79.79,0,0,1,76.56,83.29Z"/><path d="M37,118.74c.12-.27.29-.44.61-.3C37.48,118.61,37.38,118.93,37,118.74Z"/><path d="M129,46.39c-.18.23-.3.52-.64.58C128.37,46.59,128.63,46.41,129,46.39Z"/><path d="M75.19,99.72c.13-.31.24-.65.61-.77A1.08,1.08,0,0,1,75.19,99.72Z"/><path d="M104.45,66.9c.11-.25.07-.59.46-.62C104.92,66.61,104.86,66.87,104.45,66.9Z"/><path d="M131,50.05c-.12-.53.3-.61.62-.77A2.88,2.88,0,0,1,131,50.05Z"/><path d="M65.87,91.92c.21.39-.07.48-.35.58C65.56,92.26,65.47,91.92,65.87,91.92Z"/><path d="M140.75,55.08h.38a1.34,1.34,0,0,1-.95.32A.85.85,0,0,1,140.75,55.08Z"/><path d="M130.68,5.87a.41.41,0,0,1-.48-.34V5.44A.51.51,0,0,1,130.68,5.87Z"/><path d="M71.07,100.93a1.53,1.53,0,0,0-.07.36c0,.35-.17.3-.38.27C70.72,101.34,70.73,101,71.07,100.93Z"/><path d="M61.72,95.92c.05.45.05.45-.48.42A.83.83,0,0,1,61.72,95.92Z"/><path d="M72,98.67c0,.31.08.64-.34.75A1.16,1.16,0,0,1,72,98.67Z"/><path d="M101.72,70.77v-.18c.15-.14.24-.37.45-.46C102.29,70.54,102,70.66,101.72,70.77Z"/><path d="M71.67,105.11a1.24,1.24,0,0,1,.45-.93A1.24,1.24,0,0,1,71.67,105.11Z"/><path d="M173.9,28c.24.15.34.33.19.6C173.6,28.46,173.88,28.17,173.9,28Z"/><path d="M56,101.08a.74.74,0,0,1-.75.48C55.42,101.22,55.73,101.18,56,101.08Z"/><path d="M73,96.65c.21.24.18.29-.27.47A.53.53,0,0,1,73,96.65Z"/><path d="M79.32,80.85v.31l-.42.19A.5.5,0,0,1,79.32,80.85Z"/><path d="M83.92,83.76a1.46,1.46,0,0,1,.47-.75C84.43,83.39,84.19,83.58,83.92,83.76Z"/><path d="M141.85,11.88c.24,0,.54-.08.65.27A.66.66,0,0,1,141.85,11.88Z"/><path d="M215.55,14.91v.32a1,1,0,0,1-.59.18l-.05-.07C214.94,14.91,215.24,14.91,215.55,14.91Z"/><path d="M152.14,50.72a.83.83,0,0,1-.57.27h-.09c0-.55.27-.51.63-.35Z"/><path d="M30.14,117.66c0,.34-.17.43-.47.3A.71.71,0,0,1,30.14,117.66Z"/><path d="M86.73,99.2a.16.16,0,0,1,.19-.17.1.1,0,0,1,.11.12.06.06,0,0,1,0,0,.23.23,0,0,1-.15.14C86.73,99.34,86.73,99.28,86.73,99.2Z"/><path d="M186.63,20.77a5,5,0,0,1-1.09.15A1.31,1.31,0,0,1,186.63,20.77Z"/><path d="M104.63,78.88c0,.3-.26.45-.5.59C104.21,79.19,104.3,78.93,104.63,78.88Z"/><path d="M139.53,41.44c-.08-.39.17-.52.48-.61C139.86,41,139.77,41.3,139.53,41.44Z"/><path d="M30.9,117.66a.7.7,0,0,1-.76,0C30.39,117.47,30.69,117.66,30.9,117.66Z"/><path d="M109.36,61.08c-.25.07-.5.42-.75,0Z"/><path d="M138,10.18l-.16-.46a.32.32,0,0,1,.33.22C138.24,10.1,138.19,10.18,138,10.18Z"/><path d="M239.81.1a.56.56,0,0,1-.49.25C239.4.11,239.48-.14,239.81.1Z"/><path d="M115.16,47.92c.22.18.37.37.06.6Z"/><path d="M3.11,70.17A.15.15,0,0,1,3,70c0-.07,0-.15.14-.1a.21.21,0,0,1,.1.17C3.27,70.14,3.19,70.18,3.11,70.17Z"/><path d="M141.13,11.41c.19,0,.38.09.44.31A.4.4,0,0,1,141.13,11.41Z"/><path d="M88.22,77.64c0-.16,0-.34.19-.43C88.48,77.41,88.51,77.6,88.22,77.64Z"/><path d="M127.47,53.59h.45a.55.55,0,0,1-.5.28Z"/><path d="M49.32,110.78a.4.4,0,0,1,.3-.3C49.69,110.76,49.65,110.88,49.32,110.78Z"/><path d="M145.09,32.3c-.23.19-.51.12-.77.12C144.55,32.21,144.83,32.3,145.09,32.3Z"/><path d="M172.05,37.92a.74.74,0,0,1,.6-.3A.83.83,0,0,1,172.05,37.92Z"/><path d="M115.5,47.62l-.35.3c-.23-.08-.17-.2,0-.28A.84.84,0,0,1,115.5,47.62Z"/><path d="M93.87,78.23a.46.46,0,0,1-.29.48C93.62,78.52,93.61,78.3,93.87,78.23Z"/><path d="M83.3,84.67a.75.75,0,0,1,.35-.57A.58.58,0,0,1,83.3,84.67Z"/><path d="M131,6.21h-.15a.45.45,0,0,1-.14-.31A.37.37,0,0,1,131,6.21Z"/><path d="M91.27,14.06l.09.08-.11,0a.05.05,0,0,1,0,0C91.19,14.09,91.22,14.06,91.27,14.06Z"/><path d="M36.4,119c.14-.14.34-.15.51-.24A.41.41,0,0,1,36.4,119Z"/><path d="M83.64,84.1a.36.36,0,0,1,.27-.33A.3.3,0,0,1,83.64,84.1Z"/><path d="M97.3,63.71l0,.45C97,64,97,63.83,97.3,63.71Z"/><path d="M70,102.79h.16a.28.28,0,0,1-.27.3h0Z"/><path d="M91.15,80.75H91a.48.48,0,0,1,.46-.29Z"/><path d="M154.54,49a1.78,1.78,0,0,0-1.46.68,2,2,0,0,1-.83.57c-.24,0-.35-.05-.3-.31a2.8,2.8,0,0,1,2.33-1.25A.34.34,0,0,1,154.54,49Z"/><path d="M80.14,84.23l-.47-.15a3.77,3.77,0,0,1,1.69-1.42A3.06,3.06,0,0,1,80.14,84.23Z"/><path d="M155.64,47.86h-.51c-.17,0-.5-.11-.37.36s-.38.08-.47.3c-.17-.33-.21-.61.15-.86a.62.62,0,0,1,.89,0A1.27,1.27,0,0,0,155.64,47.86Z"/><path d="M150.58,51l-.6.13a1.46,1.46,0,0,0-.77-.15.19.19,0,0,1-.28,0l0,0c0-.24.12-.49.43-.3s.55-.07.82.05.29-.36.56-.47C150.89,50.53,150.6,50.72,150.58,51Z"/><path d="M151.22,50.5a.66.66,0,0,1-.15-.42c0-.23,0-.51.21-.61s.42.17.55.39C151.88,50.32,151.75,50.61,151.22,50.5Z"/><path d="M81.94,87.15l.43.13a1,1,0,0,1-.56.65.32.32,0,0,1-.45-.1h0c-.12-.15,0-.27.08-.4S81.79,87.28,81.94,87.15Z"/><path d="M151.22,50.5a1.31,1.31,0,0,0,.62-.61H152l.3.31c0,.14-.11.27-.16.41-.25,0-.51.08-.63.34l-.3-.16Z"/><path d="M156.57,47.15c-.22,0-.4.17-.62.11.17-.72.75-.55,1.24-.58C157.17,47.08,156.89,47.15,156.57,47.15Z"/><path d="M156.57,47.15a1.79,1.79,0,0,0,.62-.47l.29-.17c.13.19.06.33-.11.44S156.9,47.34,156.57,47.15Z"/><path d="M148.91,51h.3l-.6.61c-.2-.14-.27-.28,0-.43Z"/><path d="M112.44,65.08c-.09-.41.15-.18.3-.16C112.69,65.08,112.56,65.09,112.44,65.08Z"/><path d="M155.8,47.28l-.13.3c-.08,0-.19-.1-.12-.2S155.71,47.31,155.8,47.28Z"/><path d="M146.14,11.88c.33-.07.68,0,.93-.32l.67.14a.4.4,0,0,1,.37.43.31.31,0,0,1,0,.13c-.08.29-.33.31-.55.22C147.06,12.3,146.6,12.09,146.14,11.88Z"/><path d="M182.79,16.93a.68.68,0,0,1,.33.71c0,.64,0,1.27,0,1.91a1.24,1.24,0,0,1-.31-.9C182.78,18.06,182.78,17.49,182.79,16.93Z"/><path d="M176,35.31a.61.61,0,0,1-.42.64,7.41,7.41,0,0,1-1.09.46,1.37,1.37,0,0,1,1-.73c.19,0,.22-.1.24-.28S175.91,35.3,176,35.31Z"/><path d="M190.75,25.51a1.55,1.55,0,0,1-.59,1.39A1.55,1.55,0,0,1,190.75,25.51Z"/><path d="M173.61,11.47c.43-.31.69-.19,1.09-.17C174.32,11.69,174,11.56,173.61,11.47Z"/><path d="M183.54,20.61c.42,0,.33.35.3.61C183.37,21.05,183.37,21.05,183.54,20.61Z"/><path d="M189.66,27.34a1.12,1.12,0,0,1-.62.45C189.14,27.49,189.28,27.24,189.66,27.34Z"/><path d="M185.53,30.27a1.08,1.08,0,0,1-.82.29C184.92,30.24,185.24,30.27,185.53,30.27Z"/><path d="M188.93,27.93a1.86,1.86,0,0,1-.78.33C188.29,27.94,188.6,28,188.93,27.93Z"/><path d="M183.84,21.22h1A.83.83,0,0,1,183.84,21.22Z"/><path d="M190.11,27a.82.82,0,0,1-.45.33C189.67,27.05,189.86,27,190.11,27Z"/><path d="M215.55,14.91l-.63.43c-.55.08-1.07.41-1.65.2a6.11,6.11,0,0,1,1.42-.54c1.29-.46,2.47-1.21,3.75-1.65a4.34,4.34,0,0,0,.76-.5c.24-.15.31,0,.36.21Z"/><path d="M200.1,21.52a2.86,2.86,0,0,1-.76.79h-.16l1.37-2.78a2.05,2.05,0,0,1-.22,1.14A1.54,1.54,0,0,0,200.1,21.52Z"/><path d="M222,12.17c-.12,0-.27-.07-.36,0a3.28,3.28,0,0,1-1.65.58.32.32,0,0,1,.22-.28,7.24,7.24,0,0,0,2.18-1h.21c.08,0,.11.11,0,.14Z"/><path d="M222.6,11.68v-.14a13.06,13.06,0,0,0,1.75-1.08,1.46,1.46,0,0,1,.69-.29A4.42,4.42,0,0,1,222.6,11.68Z"/><path d="M200.89,17.86a2.27,2.27,0,0,1-.32,1.37C200.57,18.75,200.47,18.24,200.89,17.86Z"/><path d="M239.07,1.91l0,.15c-.18.1-.39-.1-.58,0s-.28,0-.35-.18-.12-.28,0-.39a.38.38,0,0,1,.43,0C238.72,1.63,238.89,1.78,239.07,1.91Z"/><path d="M239.63,1.27a.9.9,0,0,1-.44.48A.62.62,0,0,1,239.63,1.27Z"/><path d="M159.19,44.51c.44-.35.44-.35.93.21C159.75,44.86,159.52,44.44,159.19,44.51Z"/></g></g></svg>