<svg id="Слой_1" data-name="Слой 1" xmlns="http://www.w3.org/2000/svg" viewBox="0 0 300.19 155.71"><defs><style>.cls-1{fill:#9f9f9f;}.cls-2{fill:#515151;}.cls-3{fill:#999;}.cls-4{fill:#888;}.cls-5{fill:#9e9e9e;}.cls-6{fill:#282828;}.cls-7{fill:#4f4f4f;}.cls-8{fill:#a3a3a3;}.cls-9{fill:#cecece;}.cls-10{fill:#666;}.cls-11{fill:#d3d3d3;}.cls-12{fill:#353535;}.cls-13{fill:#a1a1a1;}.cls-14{fill:#1a1a1a;}.cls-15{fill:#4d4d4d;}.cls-16{fill:#9a9a9a;}.cls-17{fill:#858585;}.cls-18{fill:#717171;}.cls-19{fill:#838383;}.cls-20{fill:#c2c2c2;}.cls-21{fill:#525252;}.cls-22{fill:#9b9b9b;}.cls-23{fill:#3f3f3f;}.cls-24{fill:#dadada;}.cls-25{fill:#686868;}.cls-26{fill:#585858;}.cls-27{fill:#6f6f6f;}.cls-28{fill:#545454;}.cls-29{fill:#6c6c6c;}.cls-30{fill:#1c1c1c;}.cls-31{fill:#565656;}.cls-32{fill:#8b8b8b;}.cls-33{fill:#d1d1d1;}.cls-34{fill:#bababa;}.cls-35{fill:#333;}.cls-36{fill:#747474;}.cls-37{fill:#bebebe;}.cls-38{fill:#d2d2d2;}.cls-39{fill:#efefef;}.cls-40{fill:#232323;}.cls-41{fill:#868686;}.cls-42{fill:#848484;}.cls-43{fill:#c3c3c3;}.cls-44{fill:#d7d7d7;}.cls-45{fill:#3b3b3b;}.cls-46{fill:#d8d8d8;}.cls-47{fill:#393939;}.cls-48{fill:#1f1f1f;}.cls-49{fill:#ececec;}.cls-50{fill:#696969;}.cls-51{fill:#c1c1c1;}.cls-52{fill:#f2f2f2;}.cls-53{fill:#bdbdbd;}.cls-54{fill:#d5d5d5;}.cls-55{fill:#d4d4d4;}.cls-56{fill:#595959;}.cls-57{fill:#b8b8b8;}.cls-58{fill:#252525;}.cls-59{fill:#8a8a8a;}.cls-60{fill:#e7e7e7;}.cls-61{fill:#373737;}.cls-62{fill:#cdcdcd;}.cls-63{fill:gray;}.cls-64{fill:#727272;}.cls-65{fill:#e6e6e6;}.cls-66{fill:#d0d0d0;}.cls-67{fill:#bcbcbc;}.cls-68{fill:#d6d6d6;}.cls-69{fill:#3d3d3d;}.cls-70{fill:#5b5b5b;}.cls-71{fill:#cfcfcf;}.cls-72{fill:#b7b7b7;}.cls-73{fill:#b3b3b3;}.cls-74{fill:silver;}.cls-75{fill:#ccc;}.cls-76{fill:#b4b4b4;}.cls-77{fill:#fcfcfc;}.cls-78{fill:#0a0a0a;}.cls-79{fill:#a2a2a2;}</style></defs><path class="cls-1" d="M737,303.07c-.43-.19-.24-.37,0-.56Z" transform="translate(-436.81 -243.46)"/><path d="M505.17,370.65a3.09,3.09,0,0,1-.93,1.08,19.51,19.51,0,0,0-2,1.82,1.66,1.66,0,0,1-.6.4c-.79.47-1.28,1.33-2.24,1.59-.45.11-.55.72-1,.94a10.57,10.57,0,0,0-1.31,1,.24.24,0,0,0-.12.07.65.65,0,0,1-.37.36.24.24,0,0,0-.06.11,2.75,2.75,0,0,1-.89.62h0c-.69.42-1.37.87-2.07,1.28-.17.18-.39.29-.49.53a1,1,0,0,1-.7.55,2.56,2.56,0,0,0-1.62,1.12c-.16.26-.43,0-.65.21-.48.36-1,.65-1.53,1s-.64.86-1.15,1.08a4.89,4.89,0,0,1-1.35.51,13.8,13.8,0,0,0-2.74,1.9,1.81,1.81,0,0,1-.9.41c-.29.05-.46.33-.75.37a.2.2,0,0,0-.15,0,1.05,1.05,0,0,1-.62.29c-1.11.52-2.09,1.26-3.19,1.77a19.59,19.59,0,0,1-2.58,1.21c-.74.23-1.19,1-1.94,1.21-.09,0-.1.26-.26.16-.63-.4-1,0-1.28.46-.45.62-1.15.39-1.72.55-.4.11-.87,0-1.17.43-.1.14-.27.09-.41.14-.38.13-.88,0-1.11.5a.2.2,0,0,1-.15.08c-1.13-.15-2,.54-2.87,1-.21.11-.43.27-.7.13,0,0-.07,0-.08,0-1,.68-2.38.26-3.4,1-.12.08-.33.05-.37.24-.08.44-.26.35-.58.19s-.83.12-1.2.28a4.36,4.36,0,0,1-1.5.42c-1.17.09-2.31.38-3.46.58a27.06,27.06,0,0,0-3.09.45,5.27,5.27,0,0,1-1.37.14c-.32,0-.7-.13-.92.27-.07.13-.22.06-.34,0a1.16,1.16,0,0,0-.45,0,23.86,23.86,0,0,1-3.78,0c-.55,0-1.12-.32-1.66.06-.48-.39-1-.16-1.49-.07a1,1,0,0,1-.79-.19,1.75,1.75,0,0,0-.94-.33,1.69,1.69,0,0,1-1.15-.94.27.27,0,0,1,0-.34c.09-.1.18-.23.07-.32-.58-.47-.16-.84.17-1.12a4.54,4.54,0,0,0,.69-1.07c.44-.67,1.05-1.21,1.45-1.88a13.93,13.93,0,0,1,2.57-2.79,2.05,2.05,0,0,1,.47-.29c.54-.26,1.16.11,1.7-.21a1.61,1.61,0,0,1,.72,0,3.76,3.76,0,0,0,2.41.26,1.73,1.73,0,0,1,.64,0,23.94,23.94,0,0,0,5.92.15c.74-.06,1.45.23,2.2.16a3.57,3.57,0,0,0,1.78-.34,2,2,0,0,1,.89-.15,7.22,7.22,0,0,1,2.42-.14,3.27,3.27,0,0,0,1.89-.26c.94-.39,2-.43,2.9-.86a.86.86,0,0,1,.45-.07,9.51,9.51,0,0,0,3.2-.65c.36-.55,1-.42,1.51-.56s.9-.17,1.32-.36l.36-.19a.94.94,0,0,0,.57-.36h0c.31-.11.62.29.93,0s-.08-.36.05-.53c.66-.16,1.4.06,2-.43s1.15-.44,1.56-.95a.28.28,0,0,1,.23-.1,1.5,1.5,0,0,0,1.37-.38c.78-.52,1.65-.85,2.43-1.38.55-.38,1.25-.46,1.83-.83s.74-.78,1.27-.89a7.87,7.87,0,0,0,2.58-1.43c.85-.54,1.7-1.08,2.53-1.64s1.69-1,2.53-1.51a12.5,12.5,0,0,0,2.08-1.69,22.81,22.81,0,0,0,2.67-2,8.59,8.59,0,0,0,1.78-1.62,3.22,3.22,0,0,1,1-.72c1.12-.64,1.82-1.74,2.85-2.46a5.56,5.56,0,0,0,.84-1,2.88,2.88,0,0,0,.91-.58c2-2,4.23-3.83,6.34-5.75a1.36,1.36,0,0,0,.58-.51c.39-.41,1-.67,1-1.36,0-.08.14-.19.25-.25a22.45,22.45,0,0,0,3.36-2.54c.24-.18.24-.49.42-.7a1.1,1.1,0,0,0,.66-.29,29.2,29.2,0,0,0,2.15-2,1.55,1.55,0,0,1,.52-.39,4.08,4.08,0,0,0,1.2-1,3.2,3.2,0,0,1,1.11-.95c.26-.12.78-.24.45-.8-.1-.18.17-.2.3-.23a2.67,2.67,0,0,0,1.37-.71,3.15,3.15,0,0,0,1.49-1.13c.2-.34.64-.48.73-.9.23-.2.61-.05.79-.36.46-.43,1.08-.64,1.51-1.1.32-.11.46-.42.7-.62a22,22,0,0,1,2.84-2.35,1,1,0,0,1,.45-.42,4.35,4.35,0,0,1,1.36-.77,12.31,12.31,0,0,1,1.84-1.84,19.33,19.33,0,0,1,2.09-1.27c.19-.3.3-.68.73-.75a14.94,14.94,0,0,0,1.74-1.31c.85-.69,1.47-1.55,2.26-2.27a7.74,7.74,0,0,0,1.3-1.44,3.27,3.27,0,0,1,1.29-1.13,1.5,1.5,0,0,0,.5-.4,11,11,0,0,1,2.22-1.63c.27-.21.45-.09.58.17,0,.32-.37.62-.05.95s.72.2.91-.25.37-.26.6-.32c.35-.23.63-.22.81.21a18.75,18.75,0,0,1-1.83,1.74c-1.28,1.21-2.36,2.61-3.63,3.83a1.35,1.35,0,0,1-.69.9c-.42.2-.49.78-1,1-.12.15,0,.4-.23.52a2.91,2.91,0,0,0-.8,1.08,4.51,4.51,0,0,1-1.66,1.89c-.29.92-1.08,1.55-1.44,2.43a2.56,2.56,0,0,1-.74,1.12,2.69,2.69,0,0,1-.57.91h0c-.1.14-.24.25-.33.4h0c-.2.19-.16.53-.42.69l-.17.22c0,.7-1,.82-1,1.51-.31.4.12.89-.16,1.27,0,0,0,0,0-.07.29-.27.69-.25,1-.46.38-.56,1-.83,1.47-1.33a5.42,5.42,0,0,1,.92-.72c.88-.48,1.57-1.23,2.47-1.68.31-.48,1-.55,1.23-1.12.13-.21.23-.43.54-.39a2.15,2.15,0,0,0,1.19-.62,7.37,7.37,0,0,1,1.88-1.4,1.33,1.33,0,0,1,.49-.36,9.07,9.07,0,0,0,1.65-1.16c.48-.13,1-.26,1-.9l0,0c.15-.17.2-.4.35-.58.66-1.1,1-2.36,1.74-3.43a3.6,3.6,0,0,0,.82-1.51.58.58,0,0,1,.32-.43.93.93,0,0,0,.48-.55c.31-1,1.05-1.73,1.39-2.69a.49.49,0,0,1,.14-.23,5.78,5.78,0,0,0,1.47-2.39,3.06,3.06,0,0,1,.7-1,4.06,4.06,0,0,0,1-1.47.58.58,0,0,0-.17-.84,2.11,2.11,0,0,0-1-.59,3.58,3.58,0,0,1-2.45-1.66,1.72,1.72,0,0,0-.34-.32c-.1-.19-.16-.38.06-.54,0,0,.12-.1.11-.12-.16-.38,0-.59.37-.67.28-.27.3-.78.78-.88a4.07,4.07,0,0,1,3.24-.22,5.78,5.78,0,0,0,2.11.09,1.74,1.74,0,0,1,.55-.05c.61.13.92-.13,1.07-.7a1.67,1.67,0,0,1,.59-.79,8.35,8.35,0,0,0,1.3-1.53,15.26,15.26,0,0,0,1.77-2.74c.06-.12.16-.23.28-.22.51,0,.69-.39.91-.69a15.39,15.39,0,0,1,3-3.37c.22-.17.2-.19.09-1a2.59,2.59,0,0,0,1.65-1.3,7.15,7.15,0,0,1,1.88-1.88,3.54,3.54,0,0,0,.88-.93s.13-.1.12-.13c-.21-.9.69-.89,1.07-1.31.1-.26.16-.51-.07-.73h0c-.06-.36.28-.26.43-.37a.28.28,0,0,1,.18,0c.62,0,.93-.63,1.48-.78a17,17,0,0,1,2.4-2.24c.3-.27.22-.86.78-.9a29.67,29.67,0,0,0,3.39-2.19,2.51,2.51,0,0,1,1.77-.05.72.72,0,0,1,.34.86c-.28.95-.25,1-1.07,1.52a6.56,6.56,0,0,0-1.69,1.54,7.57,7.57,0,0,1-.86,1.36,33.74,33.74,0,0,0-2.64,3,1.12,1.12,0,0,1-.34.31,6,6,0,0,0-2.26,2.25,13.89,13.89,0,0,1-2.94,3,3.23,3.23,0,0,0-1.05,1.15c-.29.61-.89,1-1,1.73a4.22,4.22,0,0,0-1.66,2h0a1.38,1.38,0,0,0-1.21,1.21c-.11.42-.39.49-.63.68h0a4.25,4.25,0,0,1-.93,1c-.25.22-.64.36-.39.82h0a.92.92,0,0,0,.92,0h0c.61-.5,1.37-.21,2-.39a4.3,4.3,0,0,1,1.91-.82,4.94,4.94,0,0,0,1.75-.5,2.42,2.42,0,0,1,1.59-.34,2.08,2.08,0,0,0,1.41-.34c.57-.36,1.36-.45,1.5-1.31a.28.28,0,0,1,.23-.12c.66.05.9-.46,1.19-.89a5.68,5.68,0,0,1,.67-.88c.18-.19.33-.39.17-.66s-.07-.3.22-.37c.52-.13-.1-.43,0-.64a3,3,0,0,0,2.11-1.13c.8-.85,1.55-1.77,2.32-2.65a1.8,1.8,0,0,0,.31-.45c.21-.43.38-.92,1-1a.35.35,0,0,0,.21-.17c.49-1,1.55-1.37,2.18-2.21a2.23,2.23,0,0,1,.9-.79c.11,0,.27-.16.26-.24,0-.74.69-.83,1.07-1.21s.41-.59.77-.71c.3-.39.52-.85,1.08-1a.67.67,0,0,0,.36-.27,6.43,6.43,0,0,1,1.54-1.45,1.33,1.33,0,0,0,.68-.94c0-.51.58-.52.87-.76s.73-.61.29-1.22a3.29,3.29,0,0,0,2.45-1.24c.87-.8,1.36-1.9,2.27-2.64s1.6-1.69,2.53-2.38a2.63,2.63,0,0,1,.76-.52c.09,0,.23-.08.24-.13,0-.73.87-.91,1.08-1.5.11-.31.29-.32.54-.36.61-.1,1.2-.19,1.5-.89.15-.37.65-.44,1-.67.48-.33.95-.68,1.43-1,.29-.23.64,0,.94-.15a.26.26,0,0,1,.15,0c.48.29.39.64.2,1.09a16.25,16.25,0,0,1-3.26,4.73c-.53.61-1,1.29-1.56,1.83-1.07,1.09-1.5,2.66-2.83,3.51-.14.09,0,.48-.37.39l-.28,0a6.3,6.3,0,0,1-1.72,1.77,1.56,1.56,0,0,0-.6.62c-.84,1.63-2.51,2.53-3.5,4-.08.12-.27.14-.38.26a2,2,0,0,1-1.11,1.38c-.12,0-.27.11-.26.23,0,.6-.47.65-.86.81-.24.31-.7.45-.75.93h0a1.14,1.14,0,0,0-1,1.27,1,1,0,0,1-.27.58h0a2,2,0,0,0-1.82,1.53c-.13.51-.54.71-.89,1a1,1,0,0,1-.29.25c-.18.28-.2.66-.66.76a.77.77,0,0,0-.58.63c-.06.34-.43.54-.76.69-.19.75.23.71.74.55,2.55-.89,5.11-1.77,7.65-2.68a30.77,30.77,0,0,0,3.18-1.37,29.59,29.59,0,0,1,3-1.15c1.27-.46,2.52-.95,3.76-1.49,1.63-.7,3.27-1.37,4.95-1.95,1-.36,2-.85,3-1.28a16.54,16.54,0,0,0,2.68-1.21,1.17,1.17,0,0,1,.71-.16.92.92,0,0,0,.66-.29,8.2,8.2,0,0,1,3-1.54,20.8,20.8,0,0,0,2.63-1.2,9.11,9.11,0,0,1,3-1.32,14.61,14.61,0,0,0,4.08-1.64c.41-.24.94-.25,1.29-.64a.33.33,0,0,1,.49.08c.3.35.13.69-.08,1-.44.57-.77,1.22-1.24,1.76s-1,1.09-1.85.77c-.25-.09-.39.1-.5.3l-.06.23c0,.22.06.53-.13.62-.77.34-1.16,1.15-1.9,1.54-.17.12-.36.22-.53.34a1.5,1.5,0,0,1-.47.19c-.4.07-.92-.16-1.15.41a1.19,1.19,0,0,0-.08.2l-.06.22a.81.81,0,0,1-.07.22.77.77,0,0,1-.49.36c-.26.05-.45-.15-.68-.17-.54-.06-.9.08-.76.74a1.09,1.09,0,0,1,0,.25c0,.09-.1.22-.16.21-1.25-.1-1.9.93-2.81,1.46a.76.76,0,0,1-.26,0c-.67-.19-.44.3-.45.61a.55.55,0,0,1-.15.36c-.3.11-.52.59-.94.23a2.44,2.44,0,0,0-1.66.14c-.29.12-.36.39-.44.65-1.5,1.21-3.37,1.67-5.06,2.49a29.72,29.72,0,0,0-4.56,1.6c-.23.22-.59.16-.83.37h0c-.77.47-1.73.51-2.44,1.09h0c-.45.21-1,0-1.39.43-1.13.39-2,1.29-3.31,1.35-1,.21-1.76.84-2.74,1l-.16,0a2.57,2.57,0,0,0-1,.49.25.25,0,0,1-.17,0,25,25,0,0,0-3.54,1.1,32.36,32.36,0,0,1-3.89,1.32,12.3,12.3,0,0,1-4.47,1.29c-.7.06-1,.65-1.39,1.08s-.63.68-.9,1c-1.15,1.45-1.94,3.13-3.1,4.57h0c-.8,1.21-1.46,2.5-2.24,3.71a.39.39,0,0,0,0,.15c.16.31,0,.4-.28.52a1.49,1.49,0,0,0-1,1.55c0,.42-.26.58-.56.75a1.41,1.41,0,0,1-.73,1.12,9.94,9.94,0,0,1-1.13,2.56c-1.12,2-1.58,4.31-2.6,6.36,0,0,0,.07,0,.09-.65.4-.67,1.12-.86,1.74-.1.33-.14.64-.55.76s-.41.45-.46.75c-.12.82-.74,1.46-.83,2.29-.67.21-1,1-1.74,1.07a1.78,1.78,0,0,0-1.28.75c-.12.18-.37.23-.46.45-.27.71-.66.6-1.09.14l-.15-.2c-.18-.3-.42-.41-.73-.2a.63.63,0,0,1-.74,0h0a.75.75,0,0,1-.17-.6,12.26,12.26,0,0,0,.34-2.95h0c.1-.57.31-1.12.45-1.69.37-.9.46-1.89.86-2.78a3.54,3.54,0,0,0,.72-2.05c.25-.2.36-.52.6-.72a11.31,11.31,0,0,1,1.12-2.42c.38-1,1.15-1.78,1.47-2.8.7-1.48,1.65-2.81,2.39-4.26.15-.28.44-.47.55-.79a2.9,2.9,0,0,1,.56-.94,15,15,0,0,0,2.09-3.3c.61-.12.63-.69.81-1.1a3.14,3.14,0,0,1,.48-1,.33.33,0,0,0,0-.17v-.08a.24.24,0,0,0-.07-.16c-.16-.09-.3-.24-.5-.13-1,.43-2.15.21-3.12.68a9.74,9.74,0,0,1-2.89.68,1.84,1.84,0,0,0-1.14.34c-.16.15-.4.1-.62.08s-.55-.12-.81.05-.19.63-.55.76a.41.41,0,0,0-.37.35,4.67,4.67,0,0,1-1.2,1.94,14.63,14.63,0,0,0-1.21,1.63c-.11.27-.2.56-.52.66-.64.89-.92,2-1.52,2.88a.77.77,0,0,1-.2,1,8.52,8.52,0,0,0-1.51,2.5c-.43.77-.77,1.59-1.24,2.33a6.22,6.22,0,0,0-1,2.13,4,4,0,0,1-.69,1.18c-.11.32-.44.54-.37.93a.49.49,0,0,1,0,.17,9,9,0,0,0-1.21,2.46c-.08.26-.29.39-.47.56a2.25,2.25,0,0,1-.06.64,26.86,26.86,0,0,1-1.43,3.42,8.91,8.91,0,0,0-1,2.4,7.56,7.56,0,0,1-.71,1.75c-.26.48-.28,1.08-.74,1.45a8.81,8.81,0,0,1-1.15,3.14c-.14.32-.38.6-.3,1s-.24.69-.41,1c-.35.66-.44,1.48-1.11,2a.61.61,0,0,0-.19.5.69.69,0,0,1-.65.66,1.58,1.58,0,0,0-1.14.29c-.24.15-.71-.41-.84-1a4,4,0,0,1,.35-2.06,6.88,6.88,0,0,0,.15-2.39,8.53,8.53,0,0,1,.57-3.33c.53-1.52,1.14-3,1.7-4.54.26-.71.49-1.43.73-2.14a.3.3,0,0,0-.09-.34c-.12-.09-.21,0-.32.05a8.22,8.22,0,0,0-2.17,1.61c-.59.58-1.29,1-1.9,1.56-.28.25-.64.47-.91.74a15.42,15.42,0,0,1-1.71,1.43c-.25.19-.34.49-.58.71a39.82,39.82,0,0,0-3.14,3c-.26.31-.69.35-1,.69-.95,1.16-1.95,2.28-3,3.35,0,0,0,.06,0,.08-.4.53-.53,1.26-1.22,1.56,0,.73-.65.7-1,1s-.51.61-.74.93c-.52.33-.6,1.07-1.21,1.32a.11.11,0,0,0,0,.08c0,1.06-.87,1.56-1.5,2.22a5.55,5.55,0,0,0-1,1.77c-.1.41-.42.73-.55,1.13-.29.27-.57.55-.87.8s-.63.62-.15,1.14a1.54,1.54,0,0,0-1.15.49c-.43.48-.95.27-1.44.14a.31.31,0,0,1-.21-.43,3.53,3.53,0,0,0,.13-.54,3.36,3.36,0,0,1,.69-2.25,2.17,2.17,0,0,0,.37-1.4c0-.37.25-.28.4-.38a1.39,1.39,0,0,0,.34-.49,13.79,13.79,0,0,0,.59-1.37h0c.35-.13.24-.6.55-.76a1.83,1.83,0,0,1,.74-1.84c.27-.24.18-.64.41-.9a15.6,15.6,0,0,1,.91-1.89c.14-.17.36-.29.33-.56a.49.49,0,0,1,.06-.17,1.5,1.5,0,0,0,.72-1.13c0-.4.42-.43.52-.71-.12-.27.06-.42.24-.58a20.54,20.54,0,0,1,1.31-2.27.42.42,0,0,0,.09-.44c-.19-.46,0-.71.47-.74a.23.23,0,0,0,.21-.26c-.05-.53.33-.83.62-1.18a9.29,9.29,0,0,0,1.52-2.6c0-.08,0-.21.09-.25.6-.35.76-1,1.12-1.5a9.37,9.37,0,0,1,1.06-1.38,2.32,2.32,0,0,0,.2-1.1c.11-.27,0-.58.15-.86a10.13,10.13,0,0,1,.9-1c-.45.4-.72.87-1.14,1.2a4.7,4.7,0,0,1-1.41.67.61.61,0,0,0-.42.34c-.91,1.72-2.62,2.6-4,3.81-.66.58-1.62.82-1.9,1.83-.12.46-.73.25-1,.54l-.2.16c-.67.51-.93,1.47-1.86,1.69a8,8,0,0,0-1.12,1.06c-.11.1-.19.31-.29.33-1.27.21-1.66,1.35-2.36,2.16a34.57,34.57,0,0,0-2.8,2.47.8.8,0,0,1-.25.11,1.24,1.24,0,0,0-.86.65c-1.18,1.95-3.22,2.95-4.82,4.44a18.79,18.79,0,0,0-2.44,2.19l-.18.18c-.41.25-.9.42-1.07.95a.52.52,0,0,1-.06.16C506.19,370.08,505.54,370.21,505.17,370.65Z" transform="translate(-436.81 -243.46)"/><path d="M647.4,283.18a28.12,28.12,0,0,1,3.2-1.83c.58-.26,1.07-.75,1.78-.62,1-.34,2-.78,3-1.11a26.45,26.45,0,0,1,2.79-.55c1.33.14,2.25-.8,3.32-1.3.24-.11.5-.31.77-.42s.48-.37.18-.69a1.54,1.54,0,0,0-2-.86,7.55,7.55,0,0,1-2.91.36,2.44,2.44,0,0,0-1.41.31c-.54.23-1.11.38-1.67.57s-1.42,0-2.05.37h0c-1.06.26-2.17.24-3.23.54-.62.18-1.17.19-1.19-.71a2.23,2.23,0,0,0-.35-.85,2.82,2.82,0,0,1,.11-1.6c0-1.17-.14-2.34-.19-3.5a3.38,3.38,0,0,0-1.53-2.56,9.48,9.48,0,0,0-5.09-2.15c-1.12-.15-2.23-.38-3.34-.61a8,8,0,0,0-1.19-.1,30.34,30.34,0,0,0-4.67,0l-.35,0a22.47,22.47,0,0,0-3.54-.73,10.21,10.21,0,0,1-2.66-.63c-1.45-.45-3-.73-4.37-1.28a6.13,6.13,0,0,1-.6-.22c-2.13-1.07-4.36-1.91-6.55-2.82-.12-.05-.26-.05-.35-.13a11.65,11.65,0,0,0-3.66-1.83c-.23-.19-.55-.16-.78-.33s-.3,0-.39-.19-.4-.2-.54-.38l-2.06-.56c-.07-.93.7-.58,1.13-.74v0c1.29.27,2.59.54,3.89.83a2.74,2.74,0,0,0,1.64.36,5.3,5.3,0,0,1,1.55.29,1.69,1.69,0,0,1,.83.34.23.23,0,0,0,.25.08.6.6,0,0,1-.22-.09c-.19-.21-.52-.26-.62-.56a.44.44,0,0,1,.13-.41,8.63,8.63,0,0,1,.91.16,1,1,0,0,0,1-.2,1.07,1.07,0,0,1,1-.28,14.63,14.63,0,0,0,3,.17,2,2,0,0,1,.63.11,2.2,2.2,0,0,0,1.54,0,1.13,1.13,0,0,1,.86-.07,3.44,3.44,0,0,0,2,.07,1.74,1.74,0,0,1,1,0,16.23,16.23,0,0,0,4.4.21,2.11,2.11,0,0,0,.62-.19.26.26,0,0,0,.15-.21c.12-.58.12-.58.68-.45a2.16,2.16,0,0,0,1.44,0,2,2,0,0,1,1.19,0,15.29,15.29,0,0,0,4.43.21,11.24,11.24,0,0,1,1.74.14,18.71,18.71,0,0,0,3.43,0,2.07,2.07,0,0,1,.55,0c1.44.24,2.89.26,4.33.41a8.93,8.93,0,0,1,3.8,1.62,21.78,21.78,0,0,1,2.44,1.82,10.32,10.32,0,0,1,2,2.1,2,2,0,0,0,.74.68,2.32,2.32,0,0,1,.42,1,15.64,15.64,0,0,0,.23,2.73,2.33,2.33,0,0,0,.07.25c0,.44.38.74.54,1.12a1.39,1.39,0,0,1,.11.21.57.57,0,0,0,.23.34l.2.09a3,3,0,0,0,.79.09,2.77,2.77,0,0,0,.95-.09h0c.41-.26.9,0,1.32-.18l2.36-.06c.3-.05.61.12.91,0s.61.24.8.45,0,.45-.22.67a3.79,3.79,0,0,1-1.13.83c-.36.23-1,.47-.35,1.08a10.71,10.71,0,0,0,1.88.72c.09.11.22.1.33.13,1.27.31,1.43.73.75,1.88a1.63,1.63,0,0,1-.11.23c-.48.39-.53,1-.77,1.51l-.12.21c-.12.17-.37.16-.47.35a1.29,1.29,0,0,1-.17.16,1.76,1.76,0,0,0-.6.55,1,1,0,0,1-.31.19,1.55,1.55,0,0,0-.92.36c-.4.17-.79.35-1.2.48a1.13,1.13,0,0,0-.81,1c-.16,1.08-.15,1.08-1.18.95a2,2,0,0,0-.86.24l-.23.11a8.07,8.07,0,0,1-1.5,1.17c-.84.33-1.59.86-2.41,1.24a8.73,8.73,0,0,0-2,.93,12.05,12.05,0,0,1-3.09,1.32,1.13,1.13,0,0,0-.55.31,2.18,2.18,0,0,0-.79.83,1,1,0,0,1-.71.61,1.87,1.87,0,0,0-1.1.73,6.4,6.4,0,0,1-2.19,1,5.82,5.82,0,0,0-2.67,1.77c-.67.45-1.35.06-2,0a1.18,1.18,0,0,1-.24-1.87c.72-.86,1.38-1.76,2-2.67A9.82,9.82,0,0,1,647.4,283.18Z" transform="translate(-436.81 -243.46)"/><path d="M711.35,251.91l2.22-.56c1.56-.78,3.19-1.41,4.73-2.23,1-.51,2.07-.71,3-1.23A17.39,17.39,0,0,1,724.5,246c.29-.12.59-.31.85,0s0,.64-.14.92a.78.78,0,0,1-.33.32,18.27,18.27,0,0,0-3.57,2.23,19.83,19.83,0,0,0-2.47,1.57,5.83,5.83,0,0,1-2.2,1.16,9.29,9.29,0,0,0-2.86,1.65c-1.21.84-2.58,1.42-3.85,2.17a27.5,27.5,0,0,0-2.87,1.91,17.4,17.4,0,0,0-3.21,1.26,1.21,1.21,0,0,1-.67.39,14.77,14.77,0,0,0-2.56,1c-1.64.82-3.39,1.4-5.08,2.1a18.46,18.46,0,0,1-3.32,1.18c-1.39.38-2.8.65-4.22.91a48.42,48.42,0,0,1-5.25.1,3.93,3.93,0,0,0-1.91.42c-.47.42-.27,1-.44,1.55,0,.14,0,.28,0,.41-.42,1.23-1.14,2.31-1.63,3.51a13,13,0,0,1-6.51,5.24,2,2,0,0,1-.35.11c-.61.09-1.4.2-1.73-.23s.5-.78.81-1.17.84-.72,1.18-1.17c.72-.38,1.34-.93,2-1.36a11.73,11.73,0,0,0,2.06-1.63,6.62,6.62,0,0,0,1.09-2.21,1.68,1.68,0,0,1,.18-.78.53.53,0,0,0-.11-.79c-.07-.27-.53-.26-.41-.73.06-.27-.47-.4-.69-.64s-.15-.28.11-.47.17-.61.5-.76.61-.1.62-.51a43.41,43.41,0,0,1,5.22-3.37c1.17-1.24,2.78-1.78,4.22-2.58a5.17,5.17,0,0,1,4-.22c.87,0,1.73.06,2.59.05a13.89,13.89,0,0,0,4.6-.82c.37-.14.81,0,1.14-.29,1.56-.28,2.84-1.27,4.38-1.62a33.38,33.38,0,0,0,5.71-2.17C710,252.32,710.7,252.19,711.35,251.91Z" transform="translate(-436.81 -243.46)"/><path class="cls-2" d="M713.57,253.58a7.65,7.65,0,0,1,2.59-1.58,8.67,8.67,0,0,0,2-.91c.44-.34.9-.64,1.37-.94,1.18-.75,2.4-1.45,3.51-2.32a3.94,3.94,0,0,1,1.15-.6,1.34,1.34,0,0,0,1-1.08,3.66,3.66,0,0,0-1.8.66,22.21,22.21,0,0,1-2,1.17c-.15-.06-.15-.13,0-.21a7,7,0,0,1,2.23-1.52,2.3,2.3,0,0,0,.78-.46c.55-.34.7-1.23,1.57-1.15a5.33,5.33,0,0,0,1-.39c.7-.35.82-.25.78.6,0,.08-.08.16-.12.24s-.32.43-.49.64a.39.39,0,0,1-.33.14c-.06,0-.11,0-.16,0a.31.31,0,0,1,.21.14,8.56,8.56,0,0,1-1.62,1.33,42.83,42.83,0,0,1-5.32,3.4c-.28.13-.48.39-.8.46-1.52.71-3,1.45-4.5,2.28C714.27,253.66,714,254,713.57,253.58Z" transform="translate(-436.81 -243.46)"/><path class="cls-3" d="M524.48,352.76a.92.92,0,0,1,.5-.23.47.47,0,0,0,.47-.47,1.19,1.19,0,0,1,.67-.85c.52-.29.89-.77,1.38-1.06a17.57,17.57,0,0,0,3.36-2.9,10.71,10.71,0,0,1,1.92-1.57,2,2,0,0,1,.61-.2c.27-.17.45-.08.57.19s.39.64,0,1c-.61-.33-1.26,0-1.88-.07,0,.05-.11.11-.1.15.24.73-.28,1-.73,1.44-1,.92-2.14,1.61-3.08,2.58-.41.43-1,.65-1.46,1.11-.31.06-.59.14-.6.53a1,1,0,0,1-.72.58C525.15,352.58,524.68,353.36,524.48,352.76Z" transform="translate(-436.81 -243.46)"/><path class="cls-4" d="M672.12,273.5c0,.12,0,.28-.11.35a25.86,25.86,0,0,0-1.79,2,2.34,2.34,0,0,0,1.61,0c1.1-.55,2.2-1.1,3.29-1.66A3.71,3.71,0,0,0,676.4,273a22.75,22.75,0,0,0,2-2.46.16.16,0,0,1,.22-.06c.33.47,0,.8-.24,1.15l0,0c-.27.4-.67.7-.91,1.12-1.13,1.63-2.93,2.32-4.55,3.23a4,4,0,0,1-3.65-.3c.78-.27,1.15-1,1.74-1.45A3.39,3.39,0,0,1,672.12,273.5Z" transform="translate(-436.81 -243.46)"/><path class="cls-5" d="M713.57,253.58a9.07,9.07,0,0,0,2.29-1c.57-.22,1.08-.6,1.68-.78a2.19,2.19,0,0,0,.78-.49,1.18,1.18,0,0,1,.83-.35c.07.44-.42.32-.55.56a3.17,3.17,0,0,1-.54.36,26.32,26.32,0,0,0-4.14,2.25,24.26,24.26,0,0,1-2.38,1.22,24,24,0,0,0-3.13,2.13,3.63,3.63,0,0,1-2.28.88.26.26,0,0,1,0-.24c.27-.19.37-.6.79-.58a14,14,0,0,0,3-1.77,30,30,0,0,1,3-1.7A3.11,3.11,0,0,0,713.57,253.58Z" transform="translate(-436.81 -243.46)"/><path class="cls-6" d="M629.92,297.47c-.16-.23-.13-.41.14-.51a2.27,2.27,0,0,1,1.18-.16,1.52,1.52,0,0,0,1.62-.83,7.71,7.71,0,0,1,.95-1.45c.56.63.3,1.17-.19,1.68-.75.86-1.86,1.34-2.44,2.38a2.7,2.7,0,0,0-1.82,1.24.27.27,0,0,1-.4.1h-.36a.2.2,0,0,1-.19-.18c.5-.5.84-1.14,1.52-1.47.42-.21.09-.53,0-.79a.62.62,0,0,1,.31-.16A.62.62,0,0,0,629.92,297.47Z" transform="translate(-436.81 -243.46)"/><path class="cls-7" d="M507.74,368.2a2.23,2.23,0,0,1,.68-1,39.78,39.78,0,0,1,3.26-2.66,16.31,16.31,0,0,1,1.39-1.05,2.84,2.84,0,0,0,.89-1,4.61,4.61,0,0,1,1.79-1.9c.3.39.17.67-.21.89-.1.08-.24.14-.28.24-.43,1.07-1.38,1.58-2.24,2.22s-1.43,1.2-2.13,1.82a3.55,3.55,0,0,1-1,.72,1.13,1.13,0,0,1-.72.75,1.27,1.27,0,0,0-.8.57C508.23,368,508.06,368.22,507.74,368.2Z" transform="translate(-436.81 -243.46)"/><path class="cls-8" d="M633.62,296.2c0-.57.32-1.1.19-1.68a1.48,1.48,0,0,0,.21-.76l-4.35,1.87a2.4,2.4,0,0,1-1.27.17,22.32,22.32,0,0,1,2.38-1c.64-.3,1.25-.65,1.87-1a9.9,9.9,0,0,1,3-1.09c-.06.45-.63.5-.57.74.26.9-.69,1.35-.73,2.13a.73.73,0,0,1-.28.56A.36.36,0,0,1,633.62,296.2Z" transform="translate(-436.81 -243.46)"/><path class="cls-9" d="M718.6,251.55l.55-.56c.47-.36,1-.56,1.52-.87a45.59,45.59,0,0,0,4.48-3.08,2.75,2.75,0,0,1,1.35-.75c.17,0,.24-.17.28-.33s-.08-.16.06-.18l.15-.17c.19-.18.29-.45.53-.59h0a.25.25,0,0,1,.36,0,2.84,2.84,0,0,0-.3.57,1.11,1.11,0,0,1-1,.95.67.67,0,0,0-.32.17,24.9,24.9,0,0,1-4.13,2.93c-.82.55-1.7,1-2.51,1.53A1.86,1.86,0,0,1,718.6,251.55Z" transform="translate(-436.81 -243.46)"/><path class="cls-10" d="M688.08,264.54c1.73-.42,3.46-.81,5.18-1.27a7.3,7.3,0,0,0,2.27-.95c.65,0,1.23-.38,1.89-.35a.47.47,0,0,1,.18.19,5.57,5.57,0,0,1-1.43.6,27.15,27.15,0,0,1-2.87,1,13.69,13.69,0,0,1-4.82,1C688.26,264.84,688.15,264.73,688.08,264.54Z" transform="translate(-436.81 -243.46)"/><path class="cls-11" d="M711.35,251.91c-.31.48-.89.34-1.32.59a40.31,40.31,0,0,1-4.75,2,15.87,15.87,0,0,1-2.37.73,4.14,4.14,0,0,0-.94.36,5.41,5.41,0,0,1-2.71.82,26.89,26.89,0,0,1,4.78-1.94,32.81,32.81,0,0,0,4.83-1.83A8.59,8.59,0,0,1,711.35,251.91Z" transform="translate(-436.81 -243.46)"/><path class="cls-12" d="M592,249.12c-.07-.12-.32-.13-.27-.32a.28.28,0,0,1,.36-.2l1,.33c.39.32.88.48,1.28.76l.38.37a5.78,5.78,0,0,0,.58.53h0a1,1,0,0,1,.28.47c.22.23.52.45.22.82a.61.61,0,0,1-.81.17,4.23,4.23,0,0,0-.68-.24A8.9,8.9,0,0,1,592,249.12Z" transform="translate(-436.81 -243.46)"/><path class="cls-13" d="M688.08,264.54l.4.22a5.22,5.22,0,0,1-2.19.21c-1.14,0-2.29,0-3.42-.07-.83-.07-1.22.66-1.89.84,0,0-.05.12,0,.18.08.51-.22.95-.28,1.43-.24.6-.32,1.24-.58,1.83l-.33.41a.21.21,0,0,1-.28,0c-.26-.35,0-.67.12-.94a6,6,0,0,0,.51-1.47l0-.36c.19-.54.06-1.15.39-1.66a2,2,0,0,1,1.76-.53A21.74,21.74,0,0,0,688.08,264.54Z" transform="translate(-436.81 -243.46)"/><path class="cls-14" d="M598.66,300.84a12.38,12.38,0,0,1,2.59-2.95,4.4,4.4,0,0,0,.87-1.18,2.54,2.54,0,0,1,1.11-1.09,2,2,0,0,0,.81-.73,1.77,1.77,0,0,1,.82-.73c0,.18.1.38-.05.52a23.38,23.38,0,0,0-2.9,3.22,15,15,0,0,1-1.49,1.49,4.75,4.75,0,0,0-1.11,1.21C599.19,300.85,598.92,300.86,598.66,300.84Z" transform="translate(-436.81 -243.46)"/><path class="cls-15" d="M690.93,257.45a6.16,6.16,0,0,1-2,0,3.42,3.42,0,0,0-2.26.61,19.08,19.08,0,0,1-1.78,1,2.74,2.74,0,0,0-1.18.85,1.31,1.31,0,0,1-1,.56.25.25,0,0,1,0-.25,2,2,0,0,1,1.19-1.17c.56-.23,1.08-.53,1.62-.79a7,7,0,0,1,4.17-1.35A1.5,1.5,0,0,1,690.93,257.45Z" transform="translate(-436.81 -243.46)"/><path class="cls-16" d="M666,277.35l.18-.17c.24-.2.41-.5.76-.54h0c.1-.24.39-.22.54-.4l.06-.14c.24-.56.5-1.11.72-1.68h0c.39-.45.55-1,.92-1.5a2.27,2.27,0,0,1,.46,0c.48.13.51.22.22.61a2.12,2.12,0,0,1-.65.65,1.19,1.19,0,0,0-.53.73,4.71,4.71,0,0,1-1.43,2,8.48,8.48,0,0,1-3.46,1.75c-.15-.17-.07-.34,0-.5.45,0,.81-.34,1.25-.41C665.21,277.35,665.7,277.63,666,277.35Z" transform="translate(-436.81 -243.46)"/><path class="cls-17" d="M612.23,308.64a6.82,6.82,0,0,1,2.65-1.15c.06,0,.15,0,.18,0,.45-.69,1.31-.72,1.89-1.19.07,0,.09-.16.13-.24,0-.52.48-.6.76-.87a3.75,3.75,0,0,1,.95.13c.25.12.53.21.53.57a1.13,1.13,0,0,1-1.18.17c-.21.32-.6.34-.89.54l-1.26.89a1,1,0,0,1-.49.22c-.87-.08-1.48.49-2.15.85a1.82,1.82,0,0,1-1.12.26C612.1,308.74,612.1,308.69,612.23,308.64Z" transform="translate(-436.81 -243.46)"/><path class="cls-1" d="M569.84,342.32a8.29,8.29,0,0,1,.78-2.36,9.54,9.54,0,0,0,.53-1.47,15,15,0,0,1,1.49-3.28,10,10,0,0,1,.93-1.81,5.09,5.09,0,0,1-.81,2.39,14.1,14.1,0,0,0-1.19,2.58,26.64,26.64,0,0,1-1.36,3.58C570.11,342.12,570,342.27,569.84,342.32Z" transform="translate(-436.81 -243.46)"/><path class="cls-18" d="M594.41,251.52a3.15,3.15,0,0,1,.44.11c.25.09.5.31.74,0s-.07-.45-.1-.68a.12.12,0,0,1,.19,0c.42.42,1.1.44,1.47.94,0,.49.33.5.64.68s1.05-.09,1,.67c-.21,0-.45.14-.62.07-.87-.37-1.85-.3-2.71-.72C594.92,252.47,594.2,252.46,594.41,251.52Z" transform="translate(-436.81 -243.46)"/><path class="cls-19" d="M605.14,294.18c.51-.95,1.33-1.68,1.89-2.6a29.3,29.3,0,0,1,2.35-3,1.47,1.47,0,0,1,.38-.25c.19-.09.23,0,.22.18-1.23,1.41-2.26,3-3.34,4.48a1.39,1.39,0,0,0-.58.73.66.66,0,0,0-.48.38C605.48,294.37,605.31,294.32,605.14,294.18Z" transform="translate(-436.81 -243.46)"/><path class="cls-17" d="M706.13,258.23v.16a1.78,1.78,0,0,1-.85.53,5.19,5.19,0,0,0-1.84.79,16,16,0,0,1-2.44,1c-.9.37-1.74.89-2.68,1.19a.4.4,0,0,1-.14-.34,14.79,14.79,0,0,1,3.51-1.7c.51-.15.82-.83,1.47-.57l.55-.37a14.54,14.54,0,0,0,2.15-.93C706,258,706.07,258.11,706.13,258.23Z" transform="translate(-436.81 -243.46)"/><path class="cls-12" d="M592.52,251.54a4.88,4.88,0,0,1-2.41-2.31c.4-.18.72-.29,1,.06a2.3,2.3,0,0,0,.63.36c.94.09,1.17,1,1.7,1.53a.33.33,0,0,1,0,.49C593.09,252,592.83,251.61,592.52,251.54Z" transform="translate(-436.81 -243.46)"/><path class="cls-20" d="M592.52,251.54c.23-.2.46.05.81,0a6.92,6.92,0,0,0-1.54-1.91c.29-.1.12-.35.17-.53a8.46,8.46,0,0,1,1.46,1.47c.32.32.66.62,1,.93a2.88,2.88,0,0,0,1.09,1.1,1.5,1.5,0,0,0-.41.18c-.36.35-.64.18-.92-.1,0-.36-.28-.4-.56-.39A1.34,1.34,0,0,1,592.52,251.54Z" transform="translate(-436.81 -243.46)"/><path class="cls-21" d="M721.36,247.77l0,.21c-1.41.81-3,1.28-4.43,2-.8.38-1.62.74-2.42,1.14a1.65,1.65,0,0,1-1,.25c.31-.53.89-.64,1.37-.89a13,13,0,0,0,2.2-1.11,7.86,7.86,0,0,1,1.4-.59,7.76,7.76,0,0,0,2.28-1C720.93,247.7,721.18,247.77,721.36,247.77Z" transform="translate(-436.81 -243.46)"/><path class="cls-15" d="M588.26,317.6a.28.28,0,0,1,.27-.39c1.22-.07,2.24-.85,3.44-1a1.31,1.31,0,0,0,.47-.29,7.18,7.18,0,0,1,3-.84c.08,0,.17.07.25.11a5.24,5.24,0,0,1-2,.8c-1.29.32-2.47.9-3.73,1.28A4.53,4.53,0,0,1,588.26,317.6Z" transform="translate(-436.81 -243.46)"/><path class="cls-22" d="M625.61,301.54c.17-.09.17-.21,0-.34s.06-.26.15-.37l.21,0c.94,0,1.3.41,1.08,1.25l-1.42.62a5.69,5.69,0,0,1-1.35.28c-.24-.09-.24-.34-.33-.52s0-.09,0-.13C624.2,301.2,624.2,301.2,625.61,301.54Z" transform="translate(-436.81 -243.46)"/><path class="cls-22" d="M610,288.53l-.22-.18a3.35,3.35,0,0,1,.93-1.23,4.55,4.55,0,0,0,1.23-1.59c.35-.71.79-1.38,1.08-2.12a.8.8,0,0,0,0-.78c.3,0,.63-.15.54.41a2.87,2.87,0,0,1-.28,1c-.38.73-.75,1.47-1.1,2.21-.23.5-.73.73-1,1.15A9.44,9.44,0,0,1,610,288.53Z" transform="translate(-436.81 -243.46)"/><path class="cls-23" d="M545.67,335.27a1,1,0,0,1,.35-.63c1.27-1.37,2.49-2.78,3.85-4.06a6.12,6.12,0,0,1,1.14-.76c.12.06.13.13,0,.23a44.8,44.8,0,0,0-4.36,4.46A3.36,3.36,0,0,1,545.67,335.27Z" transform="translate(-436.81 -243.46)"/><path class="cls-9" d="M627.09,302.1c-.11-.63-.62-.92-1.08-1.25l0,0a1.27,1.27,0,0,1,.66-.43c.43-.07,1,.14,1.2-.48.15-.2.37-.15.57-.17l.19.18c-.19.53.32.66.67,1A9.27,9.27,0,0,0,627.09,302.1Z" transform="translate(-436.81 -243.46)"/><path class="cls-10" d="M518.69,358.12l.58-.72c.13-.17.21-.42.38-.52,1.1-.61,1.78-1.76,3-2.28a.36.36,0,0,1,0,.45.32.32,0,0,1-.22.32c-.48,0-.34.51-.55.73s-.35.32-.54.36c-.91.16-1.33.88-1.81,1.54a1.46,1.46,0,0,1-.82.71A.5.5,0,0,1,518.69,358.12Z" transform="translate(-436.81 -243.46)"/><path class="cls-24" d="M614.08,257.88a18.68,18.68,0,0,1-2.65-.57,1.09,1.09,0,0,1-.51-.36q-.2-.09,0-.18l.5.16c.61.22.38-.14.28-.41,0-.11.16-.28.25-.23.82.42,1.89.18,2.56,1a1.17,1.17,0,0,1,.7.23C615.08,258.31,614.51,257.89,614.08,257.88Z" transform="translate(-436.81 -243.46)"/><path class="cls-25" d="M651.08,285.57a1.16,1.16,0,0,1,.66-.31,1.71,1.71,0,0,0,1.29-.63.5.5,0,0,1,.31-.18,4.24,4.24,0,0,0,1.94-1,2.92,2.92,0,0,1,1.58-.46.2.2,0,0,1,0,.31,3.22,3.22,0,0,0-1.63,1c-.09.13-.27.14-.41.19a4.83,4.83,0,0,0-1.73.74c-.38.33-1,.18-1.41.37C651.47,285.7,651.27,285.76,651.08,285.57Z" transform="translate(-436.81 -243.46)"/><path class="cls-8" d="M651.08,285.57l.6,0c-.32.47-.94.73-.95,1.42,0,.19-.25.28-.41.34a27.79,27.79,0,0,0-2.55,1.3,2.13,2.13,0,0,1-1.32.27c-.12-.07-.12-.14,0-.21a6.88,6.88,0,0,0,2.06-1.08,2.67,2.67,0,0,1,1.37-.71c.37,0,.3-.42.47-.62A3.25,3.25,0,0,1,651.08,285.57Z" transform="translate(-436.81 -243.46)"/><path class="cls-26" d="M612.23,308.64a.43.43,0,0,0,0,.16,20,20,0,0,1-4.23,1.54.34.34,0,0,1-.46,0,2.31,2.31,0,0,1,1.87-.93,1.49,1.49,0,0,0,.87-.27A3.36,3.36,0,0,1,612.23,308.64Z" transform="translate(-436.81 -243.46)"/><path class="cls-13" d="M624.28,302.86c.46,0,.9-.29,1.38-.14-.79.26-1.43.84-2.25,1.1a7.53,7.53,0,0,0-1.56.94,3.12,3.12,0,0,1-.49.23.46.46,0,0,1-.19-.2.56.56,0,0,1,.22-.6,8,8,0,0,0,1-.85A1.69,1.69,0,0,1,624.28,302.86Z" transform="translate(-436.81 -243.46)"/><path class="cls-27" d="M665.58,271.64c-.71-.44-.7-.44-.21-.95a2.24,2.24,0,0,1,.66-.48,1.06,1.06,0,0,0,.53-.34c.18-.26.57-.46.41-.84s-.48-.28-.79-.25a1,1,0,0,1-.61-.17,1.5,1.5,0,0,1,1.76.22.75.75,0,0,1-.08,1.2,6.09,6.09,0,0,1-1.38.88C665.49,271.11,665.49,271.32,665.58,271.64Z" transform="translate(-436.81 -243.46)"/><path class="cls-28" d="M578.4,325.59a3.29,3.29,0,0,1,.62-1.13,2,2,0,0,0,.46-1c0-.09,0-.22.07-.26.84-.58,1-1.72,1.82-2.28a.4.4,0,0,1,0,.54c-.21.41-.41.82-.63,1.22a1.21,1.21,0,0,1-.6.66.46.46,0,0,0-.37.46C579.75,324.74,579.07,325.16,578.4,325.59Z" transform="translate(-436.81 -243.46)"/><path class="cls-23" d="M648,276.45c.2,0,.38,0,.43.21a1.37,1.37,0,0,1,0,.28c-.06,1,0,1.07.92.73a3.46,3.46,0,0,1,1.09-.18,4.24,4.24,0,0,0,1.28-.21.61.61,0,0,1,.76.13.64.64,0,0,1-.45.29,17.1,17.1,0,0,1-4,.4c-.2-.2,0-.51-.22-.72h0C647.72,277.05,647.62,276.71,648,276.45Z" transform="translate(-436.81 -243.46)"/><path class="cls-29" d="M643.8,286.11a18.42,18.42,0,0,1-1.77,2.34,1.57,1.57,0,0,0-.23,2.15c-.75-.06-.72-.06-.74-.67a2.46,2.46,0,0,1,.55-1.53,21.72,21.72,0,0,0,1.67-2.27A.4.4,0,0,1,643.8,286.11Z" transform="translate(-436.81 -243.46)"/><path class="cls-30" d="M631.74,265.87c.12-.18.21-.4.49-.34a13.33,13.33,0,0,0,2.68,0,2.49,2.49,0,0,1,1.5.39,3.14,3.14,0,0,1-.8.15,23.11,23.11,0,0,0-3,.05A1,1,0,0,1,631.74,265.87Z" transform="translate(-436.81 -243.46)"/><path class="cls-27" d="M682.7,260.26a1.09,1.09,0,0,1,0,.18,8.5,8.5,0,0,1-1.67,1,5,5,0,0,0-1.33.85,7.38,7.38,0,0,1-2.21,1.35c0-.34.27-.5.5-.62,1.28-.71,2.36-1.73,3.68-2.4.27-.14.55-.24.83-.36A.16.16,0,0,1,682.7,260.26Z" transform="translate(-436.81 -243.46)"/><path class="cls-31" d="M662.43,276.66c.53.35.56.49.12.71-1,.48-1.87,1.16-2.89,1.59a1.66,1.66,0,0,1-1.5.11c.27-.25.63-.21,1-.31s.79-.13,1-.56c.07-.16.22-.19.38-.2.66-.07,1.06-.67,1.7-.79C662.42,277.16,662.4,276.87,662.43,276.66Z" transform="translate(-436.81 -243.46)"/><path class="cls-26" d="M663.76,278.16a.58.58,0,0,1,0,.5,2.26,2.26,0,0,0-.51,1.54c0,.44-.12.57-.52.45a2.44,2.44,0,0,0-1.93.34.3.3,0,0,1,0-.43.45.45,0,0,1,.16,0c.27-.25.67-.17,1-.36a2.52,2.52,0,0,0,.53.08c.24,0,.44-.14.37-.4C662.51,279,663.15,278.57,663.76,278.16Z" transform="translate(-436.81 -243.46)"/><path class="cls-32" d="M727.88,245h-.36a1.26,1.26,0,0,0-.14-.68c-.5.21-1,.62-1.57.46.16-.47.67-.44,1-.68l.33-.23c.2-.1.36-.29.6-.31.28.21.87,0,.92.43S728.26,244.77,727.88,245Z" transform="translate(-436.81 -243.46)"/><path class="cls-33" d="M643.8,286.11l-.52,0a7.22,7.22,0,0,1,4.12-2.95c-.64.58-1.47.89-2.09,1.49Z" transform="translate(-436.81 -243.46)"/><path class="cls-7" d="M518.69,358.12l0,.59a10.36,10.36,0,0,1-2,1.87c-.26,0-.53.26-.77,0,.73-.58,1.2-1.47,2.13-1.81A1.83,1.83,0,0,0,518.69,358.12Z" transform="translate(-436.81 -243.46)"/><path class="cls-34" d="M498.24,376.4c.86-1.18,2.18-1.71,3.36-2.45a.34.34,0,0,1-.19.46,3.19,3.19,0,0,0-1.1,1c-.13.14-.27.35-.41.35-.72,0-1,.66-1.49,1C498.11,376.73,498.14,376.58,498.24,376.4Z" transform="translate(-436.81 -243.46)"/><path class="cls-17" d="M614.51,257.26a4,4,0,0,0-1.4-.33,1.06,1.06,0,0,1-.74-.29.58.58,0,0,0-.67-.12l-.92-.67c.79-.17,1.32.25,1.89.41a4.07,4.07,0,0,1,1.79.61Z" transform="translate(-436.81 -243.46)"/><path class="cls-35" d="M598.83,253.27c-.27-.44-.76-.32-1.15-.45-.58-.19-.62-.24-.53-.9.22.37.63.36,1,.48a17.12,17.12,0,0,1,2.38,1.38c0,.33-.18.27-.37.21A2.51,2.51,0,0,1,598.83,253.27Z" transform="translate(-436.81 -243.46)"/><path class="cls-36" d="M599.75,313.45c.19-.11.43.05.61-.11a14,14,0,0,1,2.58-1.33c.39-.14.23.25.35.36-.76.57-1.74.69-2.53,1.23-.23.16-.65,0-1,.07C599.66,313.61,599.66,313.54,599.75,313.45Z" transform="translate(-436.81 -243.46)"/><path class="cls-37" d="M600.13,254l.37-.21a1.5,1.5,0,0,1,1,.43,5,5,0,0,0,2.57,1c.21.13.39.28.19.55A16.26,16.26,0,0,1,600.13,254Z" transform="translate(-436.81 -243.46)"/><path class="cls-3" d="M576.17,329.31c0-.18,0-.42.05-.53.79-1,1.11-2.24,2-3.13,0,0,.12,0,.18,0A9.08,9.08,0,0,1,576.17,329.31Z" transform="translate(-436.81 -243.46)"/><path class="cls-38" d="M658.55,264c-.15-.28-.35-.56-.2-.91a2.27,2.27,0,0,1,1,2.08,16,16,0,0,0-.05,2.19c-.22.14-.27-.07-.38-.18h0a5.5,5.5,0,0,1-.18-2.1A1.93,1.93,0,0,0,658.55,264Z" transform="translate(-436.81 -243.46)"/><path class="cls-39" d="M607,256c-.2.16-.37.39-.67.39a.47.47,0,0,0-.46.35c-.27-.15-.86-.18-.2-.65.26-.18.06-.28-.13-.37s-.23-.33.05-.41a2.2,2.2,0,0,1,1,0c.37,0,.32.23.18.47C606.76,255.79,606.94,255.93,607,256Z" transform="translate(-436.81 -243.46)"/><path class="cls-7" d="M591.43,308.49a2.24,2.24,0,0,0,1-1.31,1.57,1.57,0,0,1,1.9-1.14,3,3,0,0,0-1.73,1.89c-.1.39-.41.41-.67.54A.41.41,0,0,1,591.43,308.49Z" transform="translate(-436.81 -243.46)"/><path class="cls-35" d="M547.36,341.44c-.78.64-1.56,1.27-2.33,1.92a.86.86,0,0,1-.87.07A13.25,13.25,0,0,0,546,341.9a1.92,1.92,0,0,1,1.17-.5C547.25,341.31,547.31,341.32,547.36,341.44Z" transform="translate(-436.81 -243.46)"/><path class="cls-28" d="M656.86,283.33V283c.76-.52,1.33-1.39,2.4-1.38l.07.1c0,.38-.52.35-.62.67A3,3,0,0,1,656.86,283.33Z" transform="translate(-436.81 -243.46)"/><path class="cls-33" d="M532.09,346.56c.2-.13.41-.27.62-.39.61-.33.92-.22,1.26.46a2.68,2.68,0,0,1-.58.9c0-.32,0-.61-.48-.61A1.49,1.49,0,0,1,532.09,346.56Z" transform="translate(-436.81 -243.46)"/><path class="cls-40" d="M558.68,332.1s0-.07,0-.09a6,6,0,0,1,1.5-2.9c.11.07.11.14,0,.22s.11.33,0,.52A7.64,7.64,0,0,1,558.68,332.1Z" transform="translate(-436.81 -243.46)"/><path class="cls-15" d="M566.3,334a1.46,1.46,0,0,1-.25,1.21,15.59,15.59,0,0,1-1.22,1.59,7.31,7.31,0,0,1,1.22-2.71C566.08,334,566.22,334,566.3,334Z" transform="translate(-436.81 -243.46)"/><path class="cls-41" d="M561.08,346.41a2.9,2.9,0,0,1,0,2,5.92,5.92,0,0,0-.21,1.56.48.48,0,0,1-.34-.58,6.66,6.66,0,0,0,.23-2.43A.54.54,0,0,1,561.08,346.41Z" transform="translate(-436.81 -243.46)"/><path class="cls-33" d="M610.92,256.77V257a18.57,18.57,0,0,0-2.77-.44A1.76,1.76,0,0,1,607,256a1.8,1.8,0,0,1,1.68.18c.33.25.78.15,1.16.27S610.57,256.68,610.92,256.77Z" transform="translate(-436.81 -243.46)"/><path class="cls-15" d="M599.75,313.45l0,.22c-.62.33-1.22.69-1.86,1-.26.11-.63.33-.93,0A5.64,5.64,0,0,1,599.75,313.45Z" transform="translate(-436.81 -243.46)"/><path class="cls-42" d="M574.3,332.28c.14-.3.4-.55.39-.92a1.42,1.42,0,0,1,1-1.42.9.9,0,0,0,.53-.48c.28.11.47.34.1.48a1.91,1.91,0,0,0-1.3,1.78C575,332.16,574.67,332.27,574.3,332.28Z" transform="translate(-436.81 -243.46)"/><path class="cls-41" d="M547,358.13c.16-1,.75-1.8.88-2.78,0-.13.18-.24.27-.36a1.31,1.31,0,0,1-.05,1.2,4,4,0,0,0-.55,1.41A.57.57,0,0,1,547,358.13Z" transform="translate(-436.81 -243.46)"/><path class="cls-43" d="M524.48,352.76c.29.12.66-.09.92.19a5.87,5.87,0,0,1-1.84,1.7c-.18-.87.41-1.36.92-1.89Z" transform="translate(-436.81 -243.46)"/><path class="cls-32" d="M646.44,288.72v.21l-.2.18c-.24.15-.53.17-.73.37a7.09,7.09,0,0,1-1.69,1.12.86.86,0,0,1,.34-.74A4.67,4.67,0,0,1,646.44,288.72Z" transform="translate(-436.81 -243.46)"/><path class="cls-23" d="M542.52,345.14a2.68,2.68,0,0,0-1.16.79,2.31,2.31,0,0,1-1.44.69,10.68,10.68,0,0,1,2.38-1.91A.31.31,0,0,1,542.52,345.14Z" transform="translate(-436.81 -243.46)"/><path class="cls-17" d="M581.36,321.47v-.54a10.72,10.72,0,0,1,1.44-1.65,1.2,1.2,0,0,1,1-.39A12.66,12.66,0,0,0,582,320.8C581.76,321,581.56,321.25,581.36,321.47Z" transform="translate(-436.81 -243.46)"/><path class="cls-3" d="M524.48,352.76a9.44,9.44,0,0,0-.92,1.89,1.34,1.34,0,0,1-.91.4l0-.45a2.1,2.1,0,0,0,.94-1A1.74,1.74,0,0,1,524.48,352.76Z" transform="translate(-436.81 -243.46)"/><path class="cls-29" d="M552,345.33a21.13,21.13,0,0,0,.87-2.1,1.44,1.44,0,0,1,.81-.92c.1.14.15.3,0,.42a5.12,5.12,0,0,0-.94,1.75A1.3,1.3,0,0,1,552,345.33Z" transform="translate(-436.81 -243.46)"/><path class="cls-9" d="M629,299.92a2.47,2.47,0,0,1,2.22-1.34c-.18.28-.53.31-.77.49a1.61,1.61,0,0,0-.66.75C629.58,300.34,629.52,300.33,629,299.92Z" transform="translate(-436.81 -243.46)"/><path class="cls-44" d="M659.46,268.47a1.11,1.11,0,0,0,0-.19c.06-.16.23-.1.33-.18a3.66,3.66,0,0,0,2.08.75l-.94.37a1.6,1.6,0,0,1-1.12,0h0A1.41,1.41,0,0,1,659.46,268.47Z" transform="translate(-436.81 -243.46)"/><path class="cls-5" d="M677.5,268.28a2.73,2.73,0,0,1-1.31,2.23,7.53,7.53,0,0,1,.72-1.88C677.12,268.53,677.15,268.13,677.5,268.28Z" transform="translate(-436.81 -243.46)"/><path class="cls-45" d="M669.13,272.92a1.83,1.83,0,0,1-.92,1.5,1.18,1.18,0,0,1,0-.27c.41-1,.41-1-.58-1.6a1.8,1.8,0,0,1-.2-.19A2,2,0,0,1,669.13,272.92Z" transform="translate(-436.81 -243.46)"/><path class="cls-46" d="M682.7,260.26l-.21,0c.26-1,1.2-1.27,2-1.7a1.78,1.78,0,0,1,1-.31,2.66,2.66,0,0,1-.88.62A3.48,3.48,0,0,0,682.7,260.26Z" transform="translate(-436.81 -243.46)"/><path class="cls-25" d="M604.42,311.81c.07-.35.38-.45.64-.6a3.36,3.36,0,0,1,1.8-.49A4.17,4.17,0,0,1,604.42,311.81Z" transform="translate(-436.81 -243.46)"/><path class="cls-2" d="M571.69,313.85a2.05,2.05,0,0,1,1.66-2s0,.07,0,.09C572.87,312.61,572.23,313.19,571.69,313.85Z" transform="translate(-436.81 -243.46)"/><path class="cls-4" d="M568.55,317.58a.53.53,0,0,1,0-.82,3.86,3.86,0,0,1,1.29-1c0,.29.13.55-.26.75A2.57,2.57,0,0,0,568.55,317.58Z" transform="translate(-436.81 -243.46)"/><path class="cls-47" d="M655.37,279.62s0,.07,0,.08a11.29,11.29,0,0,1-2.76,1.07.39.39,0,0,1-.18,0,2,2,0,0,1,1-.58A10.43,10.43,0,0,1,655.37,279.62Z" transform="translate(-436.81 -243.46)"/><path class="cls-23" d="M652.41,277.41c.05-.22.13-.45.38-.45a10.24,10.24,0,0,0,1.35-.21c.19,0,.23.17.32.29A2.79,2.79,0,0,1,652.41,277.41Z" transform="translate(-436.81 -243.46)"/><path class="cls-48" d="M494.7,374.47c0,.15,0,.42,0,.44-.68.25-1,.95-1.7,1.21a1.45,1.45,0,0,1-.37,0A6.09,6.09,0,0,1,494.7,374.47Z" transform="translate(-436.81 -243.46)"/><path class="cls-49" d="M726.81,244.12c-.19.45-.71.39-1,.68s-.68,0-.63.58c0,.38-.52.29-.81.41A3,3,0,0,1,726.81,244.12Z" transform="translate(-436.81 -243.46)"/><path class="cls-7" d="M594.37,306c-.13-.28,0-.55,0-.81.07-.75.45-1,1.28-1-.4.38-.94.66-.8,1.39C594.92,305.81,594.59,305.93,594.37,306Z" transform="translate(-436.81 -243.46)"/><path class="cls-50" d="M539.9,343.07a1.13,1.13,0,0,1,.14-.7c.42-.58.87-1.15,1.3-1.73A4,4,0,0,1,539.9,343.07Z" transform="translate(-436.81 -243.46)"/><path class="cls-30" d="M627.85,265.12a2.54,2.54,0,0,1,1.34.07,6.78,6.78,0,0,0,1.79.3c.23,0,.42.07.41.36a1.75,1.75,0,0,1-.82-.06Z" transform="translate(-436.81 -243.46)"/><path class="cls-28" d="M573.18,322.59c-.21.64-.4,1.29-.61,1.92-.14.4-.37.46-.68.15a3.51,3.51,0,0,0,.8-1.67A.39.39,0,0,1,573.18,322.59Z" transform="translate(-436.81 -243.46)"/><path class="cls-7" d="M562.39,341.94a1.37,1.37,0,0,1-.14,1.06c-.34.53-.26,1.21-.58,1.75a.21.21,0,0,1-.2-.19,10.8,10.8,0,0,0,.4-1.68A1.76,1.76,0,0,1,562.39,341.94Z" transform="translate(-436.81 -243.46)"/><path class="cls-28" d="M660.76,280.56l0,.43a1.55,1.55,0,0,1-.95.87c-.22.17-.39.11-.52-.12l0-.1A9.35,9.35,0,0,1,660.76,280.56Z" transform="translate(-436.81 -243.46)"/><path class="cls-51" d="M648,276.45a3,3,0,0,1-.18.93,2.21,2.21,0,0,1,0-2.59C647.85,275.34,647.54,275.94,648,276.45Z" transform="translate(-436.81 -243.46)"/><path class="cls-12" d="M542.52,345.14l-.22-.43c.3-.51.84-.65,1.32-.89.15.34.09.6-.28.74A3.13,3.13,0,0,0,542.52,345.14Z" transform="translate(-436.81 -243.46)"/><path class="cls-52" d="M536.18,349.21a3.53,3.53,0,0,1,.39-1.28c.06-.08.11-.08.17,0,0,.64,0,.64.79.74-.17.37-.52.5-.83.7S536.32,349.38,536.18,349.21Z" transform="translate(-436.81 -243.46)"/><path class="cls-53" d="M679.55,269.58h.2a4.48,4.48,0,0,1-1.33,2l.21-1.09C679,270.24,678.92,269.59,679.55,269.58Z" transform="translate(-436.81 -243.46)"/><path class="cls-54" d="M493.58,379.89a3.32,3.32,0,0,1,2.07-1.28A3.39,3.39,0,0,1,493.58,379.89Z" transform="translate(-436.81 -243.46)"/><path class="cls-17" d="M562.53,350.36c.44.1.89.27,1.09-.37.06-.18.27-.22.46-.22-.29.66-.65,1.24-1.51,1.08C562.11,350.77,562.35,350.55,562.53,350.36Z" transform="translate(-436.81 -243.46)"/><path class="cls-4" d="M569.86,315.75c.42-.45.52-1.08.9-1.55.27-.32.52-.5.94-.34a2.13,2.13,0,0,0-1.09,1.38A.63.63,0,0,1,569.86,315.75Z" transform="translate(-436.81 -243.46)"/><path class="cls-25" d="M560.91,350a1.26,1.26,0,0,0,.7-.37c.3-.25.58,0,.82.13s0,.31,0,.45C561.89,350.11,561.34,350.48,560.91,350Z" transform="translate(-436.81 -243.46)"/><path class="cls-55" d="M677.5,268.28l-.59.35c0-.67.59-1.2.44-1.9.24-.16.42-.14.38.2S677.58,267.83,677.5,268.28Z" transform="translate(-436.81 -243.46)"/><path class="cls-4" d="M571.5,317.18a4.79,4.79,0,0,1-2,.39.9.9,0,0,1,1.06-.52C570.85,317.11,571.2,317,571.5,317.18Z" transform="translate(-436.81 -243.46)"/><path class="cls-40" d="M444.15,389.55c-.16.38-.47.42-.82.37l-.88-.16A1.76,1.76,0,0,1,444.15,389.55Z" transform="translate(-436.81 -243.46)"/><path class="cls-56" d="M536.74,347.93h-.17a1,1,0,0,1,.42-.88c.24-.2.46-.42.68-.63,0,.42,0,.83-.53,1C537,347.52,536.87,347.76,536.74,347.93Z" transform="translate(-436.81 -243.46)"/><path class="cls-19" d="M619.32,305.87l-.58-.39a.68.68,0,0,1,.73-.16c.36.27.43-.35.73-.23a.3.3,0,0,1,.39,0,.39.39,0,0,1,.08.2A3.07,3.07,0,0,1,619.32,305.87Z" transform="translate(-436.81 -243.46)"/><path class="cls-40" d="M506.49,369.33c-.06-.64.22-.89,1.07-.95C507.4,368.91,506.86,369,506.49,369.33Z" transform="translate(-436.81 -243.46)"/><path class="cls-56" d="M572.63,322.05c.17-.26.5-.2.72-.38s.55-.2.66.14-.32.27-.46.43-.3,0-.36.19h0C572.9,322.46,572.81,322.18,572.63,322.05Z" transform="translate(-436.81 -243.46)"/><path class="cls-42" d="M505.17,370.65a2.31,2.31,0,0,1,1.26-1.16A1.34,1.34,0,0,1,505.17,370.65Z" transform="translate(-436.81 -243.46)"/><path class="cls-53" d="M680.08,269.18a2.36,2.36,0,0,1,.58-1.83A2.4,2.4,0,0,1,680.08,269.18Z" transform="translate(-436.81 -243.46)"/><path class="cls-42" d="M542.67,360.54a9,9,0,0,1-.35,2.06A1.78,1.78,0,0,1,542.67,360.54Z" transform="translate(-436.81 -243.46)"/><path class="cls-25" d="M476.29,385.27a1.81,1.81,0,0,1-2,.43s0-.07.05-.07A12.85,12.85,0,0,1,476.29,385.27Z" transform="translate(-436.81 -243.46)"/><path class="cls-57" d="M515.9,360.54a.81.81,0,0,1,.77,0,1.52,1.52,0,0,1-1.13.89,2.47,2.47,0,0,0,.21-.89Z" transform="translate(-436.81 -243.46)"/><path class="cls-54" d="M487.44,384.35c.13-.24.26-.49.4-.72s.38-.5.75-.36A1.54,1.54,0,0,1,487.44,384.35Z" transform="translate(-436.81 -243.46)"/><path class="cls-54" d="M498.24,376.4l.17.31a2.53,2.53,0,0,1-1.32.74A1.93,1.93,0,0,1,498.24,376.4Z" transform="translate(-436.81 -243.46)"/><path class="cls-47" d="M593.61,252.31c.08-.6.46-.15.69-.18a.29.29,0,0,1,.31.35c0,.23-.28.17-.44.22A.91.91,0,0,1,593.61,252.31Z" transform="translate(-436.81 -243.46)"/><path class="cls-7" d="M526.14,359.44c.13,0,.25.13.19.26-.17.41-.34.85-.91.87C525.46,360.06,525.88,359.8,526.14,359.44Z" transform="translate(-436.81 -243.46)"/><path class="cls-29" d="M551.06,330.05l0-.23c-.13-.31-.42-.32-.69-.33.18-.39.56-.36.9-.42.51.15.37.45.18.75Z" transform="translate(-436.81 -243.46)"/><path class="cls-48" d="M534.31,341a2.84,2.84,0,0,1-1.31,1,.29.29,0,0,1,0-.38A1.81,1.81,0,0,1,534.31,341Z" transform="translate(-436.81 -243.46)"/><path class="cls-58" d="M525.93,347.5c-.3.62-.68,1.16-1.49,1.13A9,9,0,0,1,525.93,347.5Z" transform="translate(-436.81 -243.46)"/><path class="cls-37" d="M594.36,249.69a1.25,1.25,0,0,1-1.28-.76A1.55,1.55,0,0,1,594.36,249.69Z" transform="translate(-436.81 -243.46)"/><path class="cls-59" d="M581.75,297.32c-.24.32-.32.78-.78.9a4.28,4.28,0,0,1,.07-.72C581.15,297,581.43,297,581.75,297.32Z" transform="translate(-436.81 -243.46)"/><path class="cls-50" d="M578.57,300.46a3.38,3.38,0,0,1-1.12.9c-.16.08-.3.09-.36-.12C577.57,300.94,577.94,300.45,578.57,300.46Z" transform="translate(-436.81 -243.46)"/><path class="cls-25" d="M603.29,312.37c-.21,0-.26-.22-.35-.36a1.62,1.62,0,0,1,1.48-.2Z" transform="translate(-436.81 -243.46)"/><path class="cls-41" d="M561.47,344.56l.2.19a8.86,8.86,0,0,1-.59,1.66A4.21,4.21,0,0,1,561.47,344.56Z" transform="translate(-436.81 -243.46)"/><path class="cls-21" d="M522.42,366.69a1.87,1.87,0,0,1-.57,1.5.12.12,0,0,1-.19,0A4,4,0,0,1,522.42,366.69Z" transform="translate(-436.81 -243.46)"/><path class="cls-51" d="M659.31,281.74l.52.12a2.74,2.74,0,0,1-1.12.55C658.56,281.88,659,281.9,659.31,281.74Z" transform="translate(-436.81 -243.46)"/><path class="cls-60" d="M509.21,367.22c.1-.38.42-.55.72-.75C509.86,367.2,509.78,367.27,509.21,367.22Z" transform="translate(-436.81 -243.46)"/><path class="cls-19" d="M617.25,306.58a.9.9,0,0,1,.89-.54c.15.2.16.38-.12.47A1.35,1.35,0,0,1,617.25,306.58Z" transform="translate(-436.81 -243.46)"/><path class="cls-3" d="M548.81,330.06c-.56-.33-.56-.43.05-.95C549.25,329.45,548.77,329.74,548.81,330.06Z" transform="translate(-436.81 -243.46)"/><path class="cls-31" d="M472.4,386.78c-.38.34-.78.62-1.32.36A1.4,1.4,0,0,1,472.4,386.78Z" transform="translate(-436.81 -243.46)"/><path class="cls-61" d="M590.11,311.44a2.19,2.19,0,0,1-.4.21.43.43,0,0,1-.55-.17c-.16-.27,0-.46.21-.59A.69.69,0,0,0,590.11,311.44Z" transform="translate(-436.81 -243.46)"/><path class="cls-29" d="M527.45,346.24c-.18.55-.18.55-.79.36-.11-.25,0-.34.24-.36A5,5,0,0,1,527.45,346.24Z" transform="translate(-436.81 -243.46)"/><path class="cls-62" d="M551.4,329.82a.89.89,0,0,0-.18-.75c.17-.2.34-.39.6-.13s.08.34-.05.49Z" transform="translate(-436.81 -243.46)"/><path class="cls-7" d="M550.33,339a.56.56,0,0,1-.26.78c-.22.14-.4.46-.7.12C549.71,339.62,550.16,339.45,550.33,339Z" transform="translate(-436.81 -243.46)"/><path class="cls-63" d="M569.8,328c-.06.39-.13.77-.56.94C569.1,328.24,569.11,328.23,569.8,328Z" transform="translate(-436.81 -243.46)"/><path class="cls-55" d="M526.12,352.37c-.15-.12-.26-.27-.12-.45s.46-.2.72-.08A1.9,1.9,0,0,1,526.12,352.37Z" transform="translate(-436.81 -243.46)"/><path class="cls-64" d="M539,337.12c-.23.26-.32.66-.73.75C538.28,337.09,538.3,337.07,539,337.12Z" transform="translate(-436.81 -243.46)"/><path class="cls-65" d="M677.53,272.76c.07-.56.49-.84.91-1.12A1.71,1.71,0,0,1,677.53,272.76Z" transform="translate(-436.81 -243.46)"/><path class="cls-23" d="M556.08,319.1a1.72,1.72,0,0,1-.78.88C555.41,319.2,555.41,319.2,556.08,319.1Z" transform="translate(-436.81 -243.46)"/><path class="cls-28" d="M659.81,268.1l-.33.18a3.73,3.73,0,0,1-.58-1.12l.38.18Z" transform="translate(-436.81 -243.46)"/><path class="cls-15" d="M595.86,315.14c.22-.36.43-.74,1-.49C596.65,315.1,596.24,315.1,595.86,315.14Z" transform="translate(-436.81 -243.46)"/><path class="cls-66" d="M461,291a.26.26,0,0,1,.37-.14c.15.06.39.09.34.32s-.22.18-.36.12S461,291.22,461,291Z" transform="translate(-436.81 -243.46)"/><path class="cls-9" d="M521.88,356.1a3.08,3.08,0,0,1,0-.53c0-.47.27-.46.58-.2A1.81,1.81,0,0,1,521.88,356.1Z" transform="translate(-436.81 -243.46)"/><path class="cls-54" d="M495.65,378.61c.16-.41.53-.51.89-.62C496.39,378.4,496.16,378.71,495.65,378.61Z" transform="translate(-436.81 -243.46)"/><path class="cls-19" d="M526.9,358.15l-.24.58c-.21-.05-.44-.15-.38-.39S526.69,358.22,526.9,358.15Z" transform="translate(-436.81 -243.46)"/><path class="cls-29" d="M553.67,342.14c-.23-.45.06-.69.37-.93C554.21,341.64,553.83,341.85,553.67,342.14Z" transform="translate(-436.81 -243.46)"/><path class="cls-12" d="M529.66,344.52c-.16.29-.11.81-.7.62A1,1,0,0,1,529.66,344.52Z" transform="translate(-436.81 -243.46)"/><path class="cls-37" d="M481.7,387.54c.15-.33.36-.53.75-.37C482.24,387.38,482.12,387.77,481.7,387.54Z" transform="translate(-436.81 -243.46)"/><path class="cls-16" d="M593.28,299.75c-.21.28-.36.63-.77.71C592.52,300,592.84,299.78,593.28,299.75Z" transform="translate(-436.81 -243.46)"/><path class="cls-67" d="M528,364.46c.15-.38.28-.79.74-.93A1.34,1.34,0,0,1,528,364.46Z" transform="translate(-436.81 -243.46)"/><path class="cls-68" d="M563.5,324.64c.13-.3.08-.72.55-.76C564.07,324.28,564,324.6,563.5,324.64Z" transform="translate(-436.81 -243.46)"/><path class="cls-7" d="M595.68,304.19c-.15-.64.36-.74.75-.93A3.93,3.93,0,0,1,595.68,304.19Z" transform="translate(-436.81 -243.46)"/><path class="cls-32" d="M516.68,355c.26.47-.08.58-.42.7C516.31,355.41,516.2,355,516.68,355Z" transform="translate(-436.81 -243.46)"/><path class="cls-25" d="M607.54,310.3l.46,0a1.61,1.61,0,0,1-1.15.38A1,1,0,0,1,607.54,310.3Z" transform="translate(-436.81 -243.46)"/><path class="cls-51" d="M595.32,250.59a.5.5,0,0,1-.58-.53A.62.62,0,0,1,595.32,250.59Z" transform="translate(-436.81 -243.46)"/><path class="cls-21" d="M523,365.93a1.44,1.44,0,0,0-.09.44c0,.42-.21.36-.46.32C522.57,366.42,522.58,366,523,365.93Z" transform="translate(-436.81 -243.46)"/><path class="cls-69" d="M511.65,359.85c.06.54.06.54-.58.51A1,1,0,0,1,511.65,359.85Z" transform="translate(-436.81 -243.46)"/><path class="cls-70" d="M524.12,363.19c0,.37.1.77-.41.9A1.39,1.39,0,0,1,524.12,363.19Z" transform="translate(-436.81 -243.46)"/><path class="cls-31" d="M560.18,329.33v-.22c.19-.17.29-.44.55-.55C560.88,329.05,560.55,329.2,560.18,329.33Z" transform="translate(-436.81 -243.46)"/><path class="cls-9" d="M523.72,371a1.54,1.54,0,0,1,.55-1.13A1.49,1.49,0,0,1,523.72,371Z" transform="translate(-436.81 -243.46)"/><path class="cls-71" d="M647.77,277.38c.29.18.41.4.22.72C647.4,278,647.74,277.65,647.77,277.38Z" transform="translate(-436.81 -243.46)"/><path class="cls-72" d="M504.73,366.11a.89.89,0,0,1-.91.58C504,366.28,504.38,366.23,504.73,366.11Z" transform="translate(-436.81 -243.46)"/><path class="cls-7" d="M525.36,360.74c.26.29.22.35-.33.56A.64.64,0,0,1,525.36,360.74Z" transform="translate(-436.81 -243.46)"/><path class="cls-73" d="M533,341.56v.38l-.5.23A.6.6,0,0,1,533,341.56Z" transform="translate(-436.81 -243.46)"/><path class="cls-56" d="M538.59,345.1a1.69,1.69,0,0,1,.57-.91C539.21,344.64,538.91,344.88,538.59,345.1Z" transform="translate(-436.81 -243.46)"/><path class="cls-53" d="M608.88,257.88c.29,0,.65-.1.78.33A.81.81,0,0,1,608.88,257.88Z" transform="translate(-436.81 -243.46)"/><path class="cls-10" d="M698.3,261.56l0,.38a1.12,1.12,0,0,1-.72.22l-.06-.08C697.56,261.56,697.92,261.55,698.3,261.56Z" transform="translate(-436.81 -243.46)"/><path class="cls-74" d="M621.36,305a1,1,0,0,1-.69.33l-.11,0c0-.66.33-.62.77-.42Z" transform="translate(-436.81 -243.46)"/><path class="cls-10" d="M473.33,386.23c0,.41-.2.52-.57.36A.84.84,0,0,1,473.33,386.23Z" transform="translate(-436.81 -243.46)"/><path class="cls-5" d="M542,363.83c0-.14.08-.23.23-.21a.14.14,0,0,1,.12.2.3.3,0,0,1-.18.17C542,364,542,363.93,542,363.83Z" transform="translate(-436.81 -243.46)"/><path class="cls-44" d="M663.21,268.67a7.48,7.48,0,0,1-1.32.18A1.57,1.57,0,0,1,663.21,268.67Z" transform="translate(-436.81 -243.46)"/><path class="cls-17" d="M563.71,339.17c0,.37-.31.55-.6.72C563.2,339.55,563.31,339.24,563.71,339.17Z" transform="translate(-436.81 -243.46)"/><path class="cls-11" d="M606.06,293.74c-.09-.47.21-.63.58-.73C606.46,293.26,606.35,293.57,606.06,293.74Z" transform="translate(-436.81 -243.46)"/><path class="cls-75" d="M470.24,360.44s-.11,0-.13-.08a.17.17,0,0,1,.11-.21c.1,0,.18,0,.18.1A.19.19,0,0,1,470.24,360.44Z" transform="translate(-436.81 -243.46)"/><path class="cls-10" d="M474.26,386.23a.87.87,0,0,1-.93,0C473.64,386,474,386.23,474.26,386.23Z" transform="translate(-436.81 -243.46)"/><path class="cls-4" d="M569.46,317.57c-.31.09-.61.51-.92,0Z" transform="translate(-436.81 -243.46)"/><path class="cls-39" d="M604.24,255.81l-.19-.55c.17,0,.35.08.4.27S604.43,255.81,604.24,255.81Z" transform="translate(-436.81 -243.46)"/><path class="cls-49" d="M727.74,243.58a.69.69,0,0,1-.6.31C727.24,243.6,727.34,243.29,727.74,243.58Z" transform="translate(-436.81 -243.46)"/><path class="cls-50" d="M576.49,301.61c.27.22.45.45.07.73Z" transform="translate(-436.81 -243.46)"/><path class="cls-64" d="M440.53,328.61a.21.21,0,0,1-.11-.22c0-.09.06-.19.17-.12a.25.25,0,0,1,.13.2C440.73,328.57,440.63,328.62,440.53,328.61Z" transform="translate(-436.81 -243.46)"/><path class="cls-44" d="M608,257.31c.23.05.46.11.54.38A.5.5,0,0,1,608,257.31Z" transform="translate(-436.81 -243.46)"/><path class="cls-76" d="M543.8,337.67c0-.2,0-.41.23-.52C544.12,337.39,544.15,337.62,543.8,337.67Z" transform="translate(-436.81 -243.46)"/><path class="cls-44" d="M591.43,308.49l.54,0a.68.68,0,0,1-.6.34Z" transform="translate(-436.81 -243.46)"/><path class="cls-54" d="M496.6,377.88a.49.49,0,0,1,.37-.36C497.05,377.85,497,378,496.6,377.88Z" transform="translate(-436.81 -243.46)"/><path class="cls-22" d="M612.81,282.65c-.28.23-.62.15-.94.15C612.15,282.55,612.49,282.66,612.81,282.65Z" transform="translate(-436.81 -243.46)"/><path class="cls-8" d="M645.52,289.48a.9.9,0,0,1,.73-.37A1.06,1.06,0,0,1,645.52,289.48Z" transform="translate(-436.81 -243.46)"/><path class="cls-50" d="M576.91,301.24l-.43.37c-.28-.1-.21-.25,0-.34A1.07,1.07,0,0,1,576.91,301.24Z" transform="translate(-436.81 -243.46)"/><path class="cls-76" d="M550.66,338.39c0,.25-.09.48-.35.58C550.36,338.74,550.34,338.47,550.66,338.39Z" transform="translate(-436.81 -243.46)"/><path class="cls-56" d="M537.84,346.2a.88.88,0,0,1,.42-.69A.71.71,0,0,1,537.84,346.2Z" transform="translate(-436.81 -243.46)"/><path class="cls-51" d="M595.68,251h-.19a.6.6,0,0,1-.17-.38A.48.48,0,0,1,595.68,251Z" transform="translate(-436.81 -243.46)"/><path class="cls-67" d="M547.51,260.52l.1.1-.13.06s-.05,0-.06-.06S547.44,260.52,547.51,260.52Z" transform="translate(-436.81 -243.46)"/><path class="cls-37" d="M480.93,387.87c.17-.18.41-.19.62-.29A.51.51,0,0,1,480.93,387.87Z" transform="translate(-436.81 -243.46)"/><path class="cls-56" d="M538.25,345.51a.42.42,0,0,1,.33-.4A.37.37,0,0,1,538.25,345.51Z" transform="translate(-436.81 -243.46)"/><path class="cls-68" d="M554.82,320.77l-.06.54C554.44,321.09,554.48,320.91,554.82,320.77Z" transform="translate(-436.81 -243.46)"/><path class="cls-67" d="M521.66,368.19h.19a.34.34,0,0,1-.36.36Z" transform="translate(-436.81 -243.46)"/><path class="cls-59" d="M547.36,341.44l-.2,0a.6.6,0,0,1,.56-.35Z" transform="translate(-436.81 -243.46)"/><path class="cls-14" d="M624.28,302.86a2.16,2.16,0,0,0-1.78.82,2.31,2.31,0,0,1-1,.69c-.3.05-.43-.06-.37-.37a3.39,3.39,0,0,1,2.83-1.52A.43.43,0,0,1,624.28,302.86Z" transform="translate(-436.81 -243.46)"/><path class="cls-14" d="M534,345.67l-.57-.19a4.53,4.53,0,0,1,2.05-1.72A3.78,3.78,0,0,1,534,345.67Z" transform="translate(-436.81 -243.46)"/><path class="cls-14" d="M625.61,301.54c-.2,0-.41,0-.62,0s-.61-.14-.45.43c.13.41-.46.1-.57.37-.21-.4-.26-.75.18-1.05a.77.77,0,0,1,1.08,0A2,2,0,0,0,625.61,301.54Z" transform="translate(-436.81 -243.46)"/><path class="cls-14" d="M619.47,305.32l-.73.16a1.66,1.66,0,0,0-.93-.18.24.24,0,0,1-.37,0c0-.3.15-.6.52-.37s.67-.08,1,.06.35-.43.68-.57C619.84,304.78,619.49,305,619.47,305.32Z" transform="translate(-436.81 -243.46)"/><path class="cls-14" d="M620.24,304.74a.85.85,0,0,1-.18-.51c0-.28,0-.62.26-.74s.51.21.66.47C621.05,304.52,620.89,304.87,620.24,304.74Z" transform="translate(-436.81 -243.46)"/><path class="cls-55" d="M536.18,349.21l.52.16a1.19,1.19,0,0,1-.67.78.4.4,0,0,1-.56-.12c-.15-.18,0-.33.1-.48S536,349.36,536.18,349.21Z" transform="translate(-436.81 -243.46)"/><path class="cls-26" d="M620.24,304.74A1.65,1.65,0,0,0,621,304l.18,0,.37.37c-.07.17-.14.33-.2.5-.3.06-.62.1-.77.42l-.36-.2Z" transform="translate(-436.81 -243.46)"/><path class="cls-48" d="M626.74,300.67c-.27,0-.49.21-.76.14.21-.88.91-.67,1.51-.71C627.46,300.59,627.13,300.67,626.74,300.67Z" transform="translate(-436.81 -243.46)"/><path class="cls-22" d="M626.74,300.67a2.08,2.08,0,0,0,.75-.57l.35-.2c.16.23.07.4-.13.53S627.14,300.91,626.74,300.67Z" transform="translate(-436.81 -243.46)"/><path class="cls-19" d="M617.44,305.3h.37l-.73.74c-.24-.17-.33-.34,0-.53Z" transform="translate(-436.81 -243.46)"/><path class="cls-77" d="M573.19,322.43c-.11-.5.18-.22.36-.19C573.49,322.43,573.34,322.44,573.19,322.43Z" transform="translate(-436.81 -243.46)"/><path class="cls-14" d="M625.8,300.83l-.15.37c-.1-.05-.23-.12-.15-.25S625.69,300.87,625.8,300.83Z" transform="translate(-436.81 -243.46)"/><path class="cls-25" d="M614.08,257.88c.4-.09.83,0,1.13-.39l.81.17a.49.49,0,0,1,.42.68c-.1.35-.4.38-.67.27C615.2,258.39,614.64,258.13,614.08,257.88Z" transform="translate(-436.81 -243.46)"/><path class="cls-28" d="M658.55,264a.84.84,0,0,1,.4.87c0,.77,0,1.54-.05,2.31a1.53,1.53,0,0,1-.37-1.09C658.54,265.38,658.54,264.68,658.55,264Z" transform="translate(-436.81 -243.46)"/><path class="cls-35" d="M650.34,286.31a.74.74,0,0,1-.51.77,8.15,8.15,0,0,1-1.33.56,1.65,1.65,0,0,1,1.19-.88c.24,0,.27-.12.29-.34S650.2,286.29,650.34,286.31Z" transform="translate(-436.81 -243.46)"/><path class="cls-45" d="M668.21,274.42a1.85,1.85,0,0,1-.72,1.68A1.89,1.89,0,0,1,668.21,274.42Z" transform="translate(-436.81 -243.46)"/><path class="cls-25" d="M647.41,257.38c.52-.37.84-.23,1.33-.2C648.27,257.65,647.94,257.49,647.41,257.38Z" transform="translate(-436.81 -243.46)"/><path class="cls-28" d="M659.46,268.47c.51,0,.4.42.37.74C659.25,269,659.25,269,659.46,268.47Z" transform="translate(-436.81 -243.46)"/><path class="cls-45" d="M666.89,276.64a1.39,1.39,0,0,1-.76.54C666.26,276.82,666.43,276.51,666.89,276.64Z" transform="translate(-436.81 -243.46)"/><path class="cls-28" d="M661.88,280.19a1.35,1.35,0,0,1-1,.36C661.14,280.16,661.52,280.19,661.88,280.19Z" transform="translate(-436.81 -243.46)"/><path class="cls-26" d="M666,277.35c-.26.27-.62.28-.94.4C665.22,277.37,665.6,277.4,666,277.35Z" transform="translate(-436.81 -243.46)"/><path class="cls-28" d="M659.83,269.21H661A1,1,0,0,1,659.83,269.21Z" transform="translate(-436.81 -243.46)"/><path class="cls-45" d="M667.43,276.24a1,1,0,0,1-.54.4C666.9,276.29,667.13,276.22,667.43,276.24Z" transform="translate(-436.81 -243.46)"/><path class="cls-40" d="M698.3,261.56l-.76.52c-.67.09-1.3.49-2,.24a7.64,7.64,0,0,1,1.72-.66c1.56-.55,3-1.46,4.55-2a4.89,4.89,0,0,0,.92-.61c.29-.18.38,0,.44.26Z" transform="translate(-436.81 -243.46)"/><path class="cls-47" d="M679.55,269.58a3.33,3.33,0,0,1-.92.95h-.19c.56-1.12,1.11-2.25,1.66-3.37a2.4,2.4,0,0,1-.27,1.39A2,2,0,0,0,679.55,269.58Z" transform="translate(-436.81 -243.46)"/><path class="cls-40" d="M706.13,258.23c-.15,0-.33-.08-.44,0a4,4,0,0,1-2,.71c0-.14.12-.31.27-.34a9.21,9.21,0,0,0,2.64-1.18c.06,0,.17,0,.26,0s.13.13,0,.17Z" transform="translate(-436.81 -243.46)"/><path class="cls-2" d="M706.86,257.64c0-.05,0-.11,0-.17a16,16,0,0,0,2.12-1.32,1.89,1.89,0,0,1,.84-.35A5.46,5.46,0,0,1,706.86,257.64Z" transform="translate(-436.81 -243.46)"/><path class="cls-47" d="M680.51,265.14a2.68,2.68,0,0,1-.39,1.66C680.12,266.22,680,265.6,680.51,265.14Z" transform="translate(-436.81 -243.46)"/><path class="cls-78" d="M726.84,245.78l-.06.18c-.22.13-.48-.12-.7,0s-.34,0-.43-.21-.15-.34,0-.48a.45.45,0,0,1,.52,0C726.42,245.44,726.62,245.62,726.84,245.78Z" transform="translate(-436.81 -243.46)"/><path class="cls-32" d="M727.52,245a1.13,1.13,0,0,1-.53.59A.75.75,0,0,1,727.52,245Z" transform="translate(-436.81 -243.46)"/><path class="cls-79" d="M629.92,297.47c.53-.42.53-.42,1.13.26-.46.17-.73-.34-1.13-.26Z" transform="translate(-436.81 -243.46)"/></svg>